<svg xmlns="http://www.w3.org/2000/svg" xmlns:xlink="http://www.w3.org/1999/xlink" width="176" zoomAndPan="magnify" viewBox="0 0 132 30.000001" height="40" preserveAspectRatio="xMidYMid meet" version="1.0"><defs><clipPath id="465edca534"><path d="M 57 4.445312 L 72 4.445312 L 72 24.769531 L 57 24.769531 Z M 57 4.445312 " clip-rule="nonzero"/></clipPath><clipPath id="626281d59c"><path d="M 73 4.445312 L 89 4.445312 L 89 24.769531 L 73 24.769531 Z M 73 4.445312 " clip-rule="nonzero"/></clipPath><clipPath id="2f58eb87bf"><path d="M 42 10 L 55 10 L 55 24.769531 L 42 24.769531 Z M 42 10 " clip-rule="nonzero"/></clipPath><clipPath id="78bf3f0bf4"><path d="M 90 4.445312 L 94 4.445312 L 94 24.769531 L 90 24.769531 Z M 90 4.445312 " clip-rule="nonzero"/></clipPath><clipPath id="52d5f80d70"><path d="M 95 9 L 109.886719 9 L 109.886719 24.769531 L 95 24.769531 Z M 95 9 " clip-rule="nonzero"/></clipPath><clipPath id="17241b5ab4"><path d="M 26 4.445312 L 41 4.445312 L 41 24.769531 L 26 24.769531 Z M 26 4.445312 " clip-rule="nonzero"/></clipPath><clipPath id="df1f7ce5b7"><path d="M 22.0625 20 L 26 20 L 26 24.769531 L 22.0625 24.769531 Z M 22.0625 20 " clip-rule="nonzero"/></clipPath></defs><g clip-path="url(#465edca534)"><path fill="#000000" d="M 64.867188 9.855469 C 63.09375 9.855469 61.34375 10.621094 60.011719 12.136719 L 60.011719 4.683594 L 57.371094 4.683594 L 57.371094 17.230469 C 57.371094 21.304688 60.640625 24.609375 64.679688 24.609375 C 68.714844 24.609375 71.984375 21.304688 71.984375 17.230469 C 71.984375 13.15625 68.902344 9.855469 64.867188 9.855469 Z M 64.671875 21.765625 C 62.191406 21.765625 60.183594 19.730469 60.183594 17.230469 C 60.183594 14.730469 62.195312 12.699219 64.671875 12.699219 C 67.15625 12.699219 69.164062 14.730469 69.164062 17.230469 C 69.164062 19.730469 67.15625 21.765625 64.671875 21.765625 Z M 64.671875 21.765625 " fill-opacity="1" fill-rule="nonzero"/></g><g clip-path="url(#626281d59c)"><path fill="#000000" d="M 81.230469 9.855469 C 79.460938 9.855469 77.707031 10.621094 76.375 12.136719 L 76.375 4.683594 L 73.738281 4.683594 L 73.738281 17.230469 C 73.738281 21.304688 77.007812 24.609375 81.042969 24.609375 C 85.078125 24.609375 88.351562 21.304688 88.351562 17.230469 C 88.351562 13.15625 85.261719 9.855469 81.230469 9.855469 Z M 81.039062 21.765625 C 78.558594 21.765625 76.550781 19.730469 76.550781 17.230469 C 76.550781 14.730469 78.5625 12.699219 81.039062 12.699219 C 83.519531 12.699219 85.527344 14.730469 85.527344 17.230469 C 85.527344 19.730469 83.519531 21.765625 81.039062 21.765625 Z M 81.039062 21.765625 " fill-opacity="1" fill-rule="nonzero"/></g><g clip-path="url(#2f58eb87bf)"><path fill="#000000" d="M 42.511719 18.523438 L 42.511719 10.253906 L 45.34375 10.253906 L 45.34375 18.496094 C 45.34375 20.605469 46.550781 21.953125 48.589844 21.953125 C 50.652344 21.953125 51.835938 20.652344 51.835938 18.496094 L 51.835938 10.253906 L 54.691406 10.253906 L 54.691406 18.523438 C 54.691406 22.34375 52.398438 24.601562 48.589844 24.601562 C 44.878906 24.609375 42.511719 22.265625 42.511719 18.523438 Z M 42.511719 18.523438 " fill-opacity="1" fill-rule="nonzero"/></g><g clip-path="url(#78bf3f0bf4)"><path fill="#000000" d="M 90.625 4.683594 L 93.457031 4.683594 L 93.457031 24.269531 L 90.625 24.269531 Z M 90.625 4.683594 " fill-opacity="1" fill-rule="nonzero"/></g><g clip-path="url(#52d5f80d70)"><path fill="#000000" d="M 109.492188 18.367188 L 98.652344 18.367188 C 99.066406 20.550781 100.582031 22.035156 103.261719 22.035156 C 104.828125 22.035156 106.738281 21.433594 107.972656 20.523438 L 109.15625 22.632812 C 107.742188 23.695312 105.5 24.578125 103.15625 24.578125 C 97.957031 24.578125 95.71875 20.914062 95.71875 17.222656 C 95.71875 15.113281 96.359375 13.375 97.675781 11.996094 C 98.988281 10.617188 100.714844 9.914062 102.800781 9.914062 C 104.785156 9.914062 106.433594 10.539062 107.695312 11.8125 C 108.960938 13.085938 109.601562 14.800781 109.601562 16.988281 C 109.589844 17.382812 109.566406 17.847656 109.492188 18.367188 Z M 98.648438 16.027344 L 106.734375 16.027344 C 106.503906 13.816406 104.878906 12.386719 102.792969 12.386719 C 100.65625 12.386719 99.0625 13.84375 98.648438 16.027344 Z M 98.648438 16.027344 " fill-opacity="1" fill-rule="nonzero"/></g><g clip-path="url(#17241b5ab4)"><path fill="#000000" d="M 33.515625 9.855469 C 31.746094 9.855469 29.992188 10.621094 28.660156 12.136719 L 28.660156 4.683594 L 26.015625 4.683594 L 26.015625 17.230469 C 26.015625 21.304688 29.289062 24.609375 33.324219 24.609375 C 37.359375 24.609375 40.628906 21.304688 40.628906 17.230469 C 40.628906 13.15625 37.546875 9.855469 33.515625 9.855469 Z M 33.324219 21.765625 C 30.839844 21.765625 28.832031 19.730469 28.832031 17.230469 C 28.832031 14.730469 30.847656 12.699219 33.324219 12.699219 C 35.804688 12.699219 37.8125 14.730469 37.8125 17.230469 C 37.8125 19.730469 35.804688 21.765625 33.324219 21.765625 Z M 33.324219 21.765625 " fill-opacity="1" fill-rule="nonzero"/></g><g clip-path="url(#df1f7ce5b7)"><path fill="#0000ff" d="M 25.902344 22.78125 C 25.902344 23.023438 25.855469 23.253906 25.765625 23.476562 C 25.671875 23.703125 25.542969 23.898438 25.375 24.070312 C 25.203125 24.242188 25.007812 24.371094 24.789062 24.464844 C 24.566406 24.558594 24.335938 24.601562 24.097656 24.601562 C 23.859375 24.601562 23.628906 24.558594 23.40625 24.464844 C 23.183594 24.371094 22.988281 24.242188 22.820312 24.070312 C 22.652344 23.898438 22.519531 23.703125 22.429688 23.476562 C 22.335938 23.253906 22.292969 23.023438 22.292969 22.78125 C 22.292969 22.539062 22.335938 22.304688 22.429688 22.082031 C 22.519531 21.859375 22.652344 21.664062 22.820312 21.492188 C 22.988281 21.320312 23.183594 21.1875 23.40625 21.097656 C 23.628906 21.003906 23.859375 20.957031 24.097656 20.957031 C 24.335938 20.957031 24.566406 21.003906 24.789062 21.097656 C 25.007812 21.1875 25.203125 21.320312 25.375 21.492188 C 25.542969 21.664062 25.671875 21.859375 25.765625 22.082031 C 25.855469 22.304688 25.902344 22.539062 25.902344 22.78125 Z M 25.902344 22.78125 " fill-opacity="1" fill-rule="nonzero"/></g></svg>