<svg xmlns="http://www.w3.org/2000/svg" xmlns:xlink="http://www.w3.org/1999/xlink" width="176" zoomAndPan="magnify" viewBox="0 0 132 30.000001" height="40" preserveAspectRatio="xMidYMid meet" version="1.0"><path fill="#1f80ff" d="M 34.851562 7.660156 C 34.980469 7.789062 35.085938 7.9375 35.171875 8.109375 C 35.257812 8.277344 35.316406 8.464844 35.355469 8.667969 C 35.390625 8.871094 35.402344 9.085938 35.386719 9.316406 C 35.375 9.542969 35.335938 9.78125 35.273438 10.023438 C 35.210938 10.269531 35.125 10.519531 35.015625 10.769531 C 34.90625 11.023438 34.773438 11.273438 34.621094 11.523438 C 34.46875 11.773438 34.296875 12.019531 34.109375 12.253906 C 33.917969 12.492188 33.714844 12.71875 33.496094 12.9375 C 33.277344 13.152344 33.050781 13.355469 32.808594 13.542969 C 32.570312 13.726562 32.324219 13.898438 32.070312 14.046875 C 31.820312 14.195312 31.566406 14.324219 31.3125 14.433594 C 31.058594 14.542969 30.808594 14.625 30.5625 14.6875 C 30.316406 14.746094 30.078125 14.785156 29.847656 14.796875 C 29.621094 14.808594 29.402344 14.796875 29.199219 14.757812 C 28.996094 14.71875 28.808594 14.660156 28.640625 14.574219 C 28.46875 14.488281 28.320312 14.378906 28.1875 14.25 C 28.058594 14.121094 27.953125 13.96875 27.867188 13.800781 C 27.78125 13.628906 27.722656 13.445312 27.6875 13.242188 C 27.648438 13.039062 27.636719 12.820312 27.652344 12.59375 C 27.664062 12.363281 27.703125 12.128906 27.765625 11.882812 C 27.828125 11.636719 27.914062 11.390625 28.023438 11.136719 C 28.136719 10.882812 28.265625 10.632812 28.417969 10.382812 C 28.570312 10.132812 28.742188 9.890625 28.929688 9.652344 C 29.121094 9.414062 29.324219 9.1875 29.542969 8.972656 C 29.761719 8.753906 29.992188 8.554688 30.230469 8.367188 C 30.46875 8.179688 30.714844 8.011719 30.96875 7.863281 C 31.21875 7.710938 31.472656 7.582031 31.726562 7.476562 C 31.980469 7.367188 32.230469 7.28125 32.476562 7.222656 C 32.722656 7.160156 32.960938 7.125 33.191406 7.113281 C 33.421875 7.101562 33.636719 7.113281 33.839844 7.152344 C 34.042969 7.1875 34.230469 7.25 34.402344 7.335938 C 34.570312 7.421875 34.71875 7.527344 34.851562 7.660156 Z M 34.851562 7.660156 " fill-opacity="1" fill-rule="nonzero"/><path fill="#4aa147" d="M 31.984375 17.359375 C 32.300781 17.671875 32.570312 18.011719 32.789062 18.378906 C 33.007812 18.746094 33.15625 19.109375 33.242188 19.472656 C 33.328125 19.835938 33.339844 20.167969 33.277344 20.472656 C 33.21875 20.777344 33.085938 21.027344 32.890625 21.226562 C 32.691406 21.425781 32.441406 21.554688 32.136719 21.617188 C 31.832031 21.679688 31.496094 21.671875 31.132812 21.589844 C 30.765625 21.507812 30.398438 21.359375 30.03125 21.144531 C 29.660156 20.929688 29.316406 20.667969 29 20.351562 C 28.683594 20.039062 28.414062 19.699219 28.195312 19.332031 C 27.976562 18.964844 27.828125 18.601562 27.742188 18.238281 C 27.65625 17.875 27.644531 17.542969 27.707031 17.238281 C 27.765625 16.933594 27.898438 16.683594 28.09375 16.484375 C 28.292969 16.285156 28.542969 16.15625 28.847656 16.09375 C 29.152344 16.027344 29.488281 16.039062 29.851562 16.121094 C 30.21875 16.203125 30.585938 16.351562 30.953125 16.566406 C 31.324219 16.777344 31.667969 17.042969 31.984375 17.359375 Z M 31.984375 17.359375 " fill-opacity="1" fill-rule="nonzero"/><path fill="#cf2c91" d="M 24.394531 8.96875 C 24.613281 9.183594 24.816406 9.410156 25.007812 9.648438 C 25.195312 9.886719 25.367188 10.128906 25.519531 10.378906 C 25.671875 10.628906 25.804688 10.878906 25.914062 11.132812 C 26.023438 11.382812 26.109375 11.632812 26.171875 11.878906 C 26.234375 12.125 26.273438 12.359375 26.285156 12.589844 C 26.300781 12.816406 26.289062 13.03125 26.253906 13.234375 C 26.214844 13.4375 26.15625 13.625 26.070312 13.796875 C 25.984375 13.964844 25.878906 14.113281 25.75 14.246094 C 25.621094 14.375 25.46875 14.484375 25.300781 14.570312 C 25.128906 14.652344 24.941406 14.714844 24.738281 14.753906 C 24.535156 14.789062 24.320312 14.804688 24.089844 14.792969 C 23.859375 14.777344 23.621094 14.742188 23.375 14.679688 C 23.128906 14.621094 22.878906 14.535156 22.625 14.429688 C 22.371094 14.320312 22.117188 14.191406 21.867188 14.042969 C 21.613281 13.890625 21.367188 13.722656 21.128906 13.535156 C 20.890625 13.351562 20.660156 13.148438 20.441406 12.933594 C 20.222656 12.714844 20.019531 12.488281 19.828125 12.25 C 19.640625 12.011719 19.46875 11.769531 19.316406 11.519531 C 19.164062 11.269531 19.035156 11.019531 18.921875 10.765625 C 18.8125 10.515625 18.726562 10.265625 18.664062 10.019531 C 18.601562 9.777344 18.5625 9.539062 18.550781 9.308594 C 18.535156 9.082031 18.546875 8.867188 18.585938 8.664062 C 18.621094 8.460938 18.679688 8.273438 18.765625 8.105469 C 18.851562 7.933594 18.957031 7.785156 19.085938 7.652344 C 19.21875 7.523438 19.367188 7.414062 19.539062 7.332031 C 19.707031 7.246094 19.894531 7.183594 20.097656 7.144531 C 20.300781 7.109375 20.519531 7.097656 20.746094 7.109375 C 20.976562 7.121094 21.214844 7.15625 21.460938 7.21875 C 21.707031 7.277344 21.957031 7.363281 22.210938 7.46875 C 22.464844 7.578125 22.71875 7.707031 22.96875 7.855469 C 23.222656 8.007812 23.46875 8.175781 23.707031 8.363281 C 23.949219 8.550781 24.175781 8.75 24.394531 8.96875 Z M 24.394531 8.96875 " fill-opacity="1" fill-rule="nonzero"/><path fill="#f58220" d="M 25.902344 16.488281 C 26.101562 16.6875 26.230469 16.9375 26.292969 17.242188 C 26.355469 17.542969 26.34375 17.878906 26.257812 18.242188 C 26.171875 18.601562 26.019531 18.96875 25.804688 19.335938 C 25.585938 19.699219 25.316406 20.039062 25 20.355469 C 24.679688 20.667969 24.335938 20.933594 23.96875 21.148438 C 23.597656 21.363281 23.230469 21.511719 22.867188 21.59375 C 22.5 21.675781 22.167969 21.683594 21.863281 21.621094 C 21.558594 21.558594 21.308594 21.425781 21.109375 21.226562 C 20.910156 21.03125 20.78125 20.777344 20.71875 20.476562 C 20.660156 20.171875 20.671875 19.835938 20.753906 19.476562 C 20.839844 19.113281 20.992188 18.746094 21.210938 18.382812 C 21.429688 18.015625 21.695312 17.675781 22.015625 17.359375 C 22.332031 17.046875 22.675781 16.78125 23.046875 16.566406 C 23.414062 16.351562 23.78125 16.203125 24.144531 16.121094 C 24.511719 16.039062 24.847656 16.03125 25.148438 16.09375 C 25.453125 16.15625 25.707031 16.289062 25.902344 16.488281 Z M 25.902344 16.488281 " fill-opacity="1" fill-rule="nonzero"/><path fill="#414042" d="M 49.496094 20.925781 C 49.496094 21.4375 49.097656 21.835938 48.523438 21.835938 C 48.238281 21.835938 48.007812 21.722656 47.835938 21.550781 L 43.886719 17.277344 L 42.511719 18.585938 L 42.511719 20.753906 C 42.511719 21.324219 42.054688 21.835938 41.425781 21.835938 C 40.851562 21.835938 40.335938 21.382812 40.335938 20.753906 L 40.335938 8.550781 C 40.335938 7.980469 40.792969 7.464844 41.425781 7.464844 C 41.996094 7.464844 42.511719 7.921875 42.511719 8.550781 L 42.511719 16.136719 L 47.035156 11.628906 C 47.207031 11.457031 47.492188 11.34375 47.78125 11.34375 C 48.296875 11.34375 48.753906 11.800781 48.753906 12.3125 C 48.753906 12.597656 48.640625 12.828125 48.46875 13 L 45.261719 16.078125 L 49.269531 20.296875 C 49.382812 20.410156 49.496094 20.695312 49.496094 20.925781 Z M 49.496094 20.925781 " fill-opacity="1" fill-rule="nonzero"/><path fill="#414042" d="M 51.214844 8.320312 C 51.214844 7.75 51.730469 7.238281 52.304688 7.238281 C 52.875 7.238281 53.390625 7.75 53.390625 8.320312 C 53.390625 8.890625 52.875 9.40625 52.304688 9.40625 C 51.730469 9.40625 51.214844 8.890625 51.214844 8.320312 Z M 53.390625 12.371094 L 53.390625 20.8125 C 53.390625 21.4375 52.933594 21.894531 52.304688 21.894531 C 51.730469 21.894531 51.214844 21.4375 51.214844 20.8125 L 51.214844 12.371094 C 51.214844 11.742188 51.671875 11.289062 52.304688 11.289062 C 52.875 11.289062 53.390625 11.742188 53.390625 12.371094 Z M 53.390625 12.371094 " fill-opacity="1" fill-rule="nonzero"/><path fill="#414042" d="M 62.609375 12.769531 C 62.722656 12.941406 62.894531 13.167969 62.894531 13.511719 C 62.894531 14.023438 62.496094 14.308594 62.039062 14.308594 C 61.695312 14.308594 61.40625 14.195312 61.121094 13.796875 C 60.71875 13.285156 60.148438 12.941406 59.347656 12.941406 C 58.316406 12.941406 57.742188 13.453125 57.742188 14.140625 C 57.742188 14.652344 58.027344 15.109375 59.117188 15.394531 L 60.375 15.734375 C 62.09375 16.191406 63.355469 16.933594 63.355469 18.644531 C 63.355469 20.753906 61.351562 21.78125 59.289062 21.78125 C 57.515625 21.78125 56.3125 21.039062 55.796875 20.183594 C 55.683594 20.070312 55.394531 19.671875 55.394531 19.15625 C 55.394531 18.757812 55.683594 18.300781 56.195312 18.300781 C 56.65625 18.300781 56.882812 18.585938 57.113281 18.871094 C 57.628906 19.726562 58.429688 20.011719 59.289062 20.011719 C 60.433594 20.011719 61.234375 19.558594 61.234375 18.757812 C 61.234375 18.132812 60.835938 17.730469 59.804688 17.445312 L 58.429688 17.105469 C 56.484375 16.589844 55.625 15.507812 55.625 14.140625 C 55.625 12.257812 57.34375 11.171875 59.289062 11.171875 C 60.71875 11.230469 61.980469 11.800781 62.609375 12.769531 Z M 62.609375 12.769531 " fill-opacity="1" fill-rule="nonzero"/><path fill="#414042" d="M 72 12.769531 C 72.113281 12.941406 72.285156 13.167969 72.285156 13.511719 C 72.285156 14.023438 71.886719 14.308594 71.425781 14.308594 C 71.082031 14.308594 70.796875 14.195312 70.511719 13.796875 C 70.109375 13.285156 69.539062 12.941406 68.738281 12.941406 C 67.707031 12.941406 67.132812 13.453125 67.132812 14.140625 C 67.132812 14.652344 67.417969 15.109375 68.507812 15.394531 L 69.765625 15.734375 C 71.484375 16.191406 72.746094 16.933594 72.746094 18.644531 C 72.746094 20.753906 70.742188 21.78125 68.679688 21.78125 C 66.902344 21.78125 65.703125 21.039062 65.1875 20.183594 C 65.070312 20.070312 64.785156 19.671875 64.785156 19.15625 C 64.785156 18.757812 65.070312 18.300781 65.585938 18.300781 C 66.046875 18.300781 66.273438 18.585938 66.503906 18.871094 C 67.019531 19.726562 67.820312 20.011719 68.679688 20.011719 C 69.824219 20.011719 70.625 19.558594 70.625 18.757812 C 70.625 18.132812 70.226562 17.730469 69.195312 17.445312 L 67.820312 17.105469 C 65.875 16.589844 65.015625 15.507812 65.015625 14.140625 C 65.015625 12.257812 66.730469 11.171875 68.679688 11.171875 C 70.109375 11.230469 71.371094 11.800781 72 12.769531 Z M 72 12.769531 " fill-opacity="1" fill-rule="nonzero"/><path fill="#414042" d="M 81.390625 8.664062 C 81.390625 9.121094 81.046875 9.460938 80.589844 9.460938 C 80.417969 9.460938 80.128906 9.40625 79.84375 9.292969 C 79.558594 9.175781 79.328125 9.0625 78.871094 9.0625 C 77.726562 9.0625 77.382812 9.917969 77.382812 10.71875 L 77.382812 11.402344 L 79.386719 11.402344 C 79.902344 11.402344 80.246094 11.742188 80.246094 12.257812 C 80.246094 12.769531 79.902344 13.113281 79.386719 13.113281 L 77.441406 13.113281 L 77.441406 20.867188 C 77.441406 21.4375 76.980469 21.953125 76.410156 21.953125 C 75.835938 21.953125 75.320312 21.496094 75.320312 20.867188 L 75.320312 13.054688 L 74.632812 13.054688 C 74.117188 13.054688 73.773438 12.714844 73.773438 12.199219 C 73.773438 11.6875 74.117188 11.34375 74.632812 11.34375 L 75.320312 11.34375 L 75.320312 10.601562 C 75.320312 7.867188 77.324219 7.238281 78.640625 7.238281 C 79.558594 7.238281 80.300781 7.464844 80.875 7.867188 C 81.21875 8.035156 81.449219 8.320312 81.390625 8.664062 Z M 84.597656 8.550781 L 84.597656 20.8125 C 84.597656 21.382812 84.136719 21.894531 83.507812 21.894531 C 82.878906 21.894531 82.421875 21.4375 82.421875 20.8125 L 82.421875 8.550781 C 82.421875 7.980469 82.878906 7.464844 83.507812 7.464844 C 84.082031 7.464844 84.597656 7.921875 84.597656 8.550781 Z M 84.597656 8.550781 " fill-opacity="1" fill-rule="nonzero"/><path fill="#414042" d="M 97.191406 16.589844 C 97.191406 20.183594 94.214844 21.894531 91.867188 21.894531 C 89.578125 21.894531 86.601562 20.125 86.601562 16.589844 C 86.601562 13.054688 89.578125 11.230469 91.867188 11.230469 C 94.160156 11.230469 97.191406 13 97.191406 16.589844 Z M 88.71875 16.589844 C 88.71875 18.871094 90.324219 20.070312 91.867188 20.070312 C 93.414062 20.070312 95.074219 18.871094 95.074219 16.589844 C 95.074219 14.308594 93.472656 13.113281 91.867188 13.113281 C 90.324219 13.054688 88.71875 14.308594 88.71875 16.589844 Z M 88.71875 16.589844 " fill-opacity="1" fill-rule="nonzero"/><path fill="#414042" d="M 113.453125 12.3125 C 113.453125 12.484375 113.398438 12.597656 113.339844 12.769531 L 110.535156 20.980469 C 110.363281 21.496094 109.960938 21.78125 109.503906 21.78125 C 109.046875 21.78125 108.703125 21.496094 108.472656 20.980469 L 105.78125 14.367188 L 103.035156 20.980469 C 102.863281 21.496094 102.460938 21.78125 102.003906 21.78125 C 101.542969 21.78125 101.203125 21.496094 100.972656 20.980469 L 98.109375 12.769531 C 98.050781 12.597656 97.996094 12.429688 97.996094 12.3125 C 97.996094 11.742188 98.453125 11.289062 99.027344 11.289062 C 99.425781 11.289062 99.828125 11.515625 99.941406 11.859375 L 102.175781 18.644531 L 104.808594 11.914062 C 104.980469 11.515625 105.324219 11.230469 105.78125 11.230469 C 106.238281 11.230469 106.582031 11.457031 106.753906 11.914062 L 109.390625 18.644531 L 111.621094 11.859375 C 111.738281 11.515625 112.136719 11.289062 112.539062 11.289062 C 112.996094 11.289062 113.453125 11.742188 113.453125 12.3125 Z M 113.453125 12.3125 " fill-opacity="1" fill-rule="nonzero"/></svg>