<svg xmlns="http://www.w3.org/2000/svg" xmlns:xlink="http://www.w3.org/1999/xlink" width="176" zoomAndPan="magnify" viewBox="0 0 132 30.000001" height="40" preserveAspectRatio="xMidYMid meet" version="1.0"><defs><clipPath id="5770bfdb0d"><path d="M 2.128906 0 L 129.871094 0 L 129.871094 29.03125 L 2.128906 29.03125 Z M 2.128906 0 " clip-rule="nonzero"/></clipPath></defs><g clip-path="url(#5770bfdb0d)"><path fill="#ffffff" d="M 2.128906 0 L 129.871094 0 L 129.871094 29.03125 L 2.128906 29.03125 Z M 2.128906 0 " fill-opacity="1" fill-rule="nonzero"/><path fill="#ff9201" d="M 2.128906 0 L 129.871094 0 L 129.871094 29.03125 L 2.128906 29.03125 Z M 2.128906 0 " fill-opacity="1" fill-rule="nonzero"/></g><path fill="#089949" d="M 62.339844 22.839844 C 61.828125 22.839844 61.308594 22.730469 60.808594 22.515625 L 50.148438 17.800781 C 48.242188 16.960938 47.382812 14.730469 48.226562 12.839844 L 52.980469 2.257812 C 53.824219 0.367188 56.070312 -0.484375 57.976562 0.355469 L 68.636719 5.070312 C 70.542969 5.910156 71.402344 8.136719 70.554688 10.027344 L 65.804688 20.609375 C 65.171875 22.011719 63.785156 22.839844 62.339844 22.839844 Z M 61.691406 20.53125 C 62.5 20.886719 63.445312 20.523438 63.804688 19.730469 L 68.554688 9.148438 C 68.914062 8.347656 68.550781 7.410156 67.75 7.054688 L 57.082031 2.339844 C 56.277344 1.980469 55.332031 2.34375 54.972656 3.136719 L 50.21875 13.71875 C 49.859375 14.519531 50.226562 15.457031 51.027344 15.816406 Z M 61.691406 20.53125 " fill-opacity="1" fill-rule="nonzero"/><path fill="#f9b21d" d="M 95.777344 22.84375 L 84.105469 22.84375 C 82.019531 22.84375 80.320312 21.160156 80.320312 19.089844 L 80.320312 7.503906 C 80.320312 5.433594 82.019531 3.746094 84.105469 3.746094 L 95.777344 3.746094 C 97.863281 3.746094 99.5625 5.433594 99.5625 7.503906 L 99.5625 19.089844 C 99.5625 21.160156 97.863281 22.84375 95.777344 22.84375 Z M 84.105469 5.914062 C 83.226562 5.914062 82.507812 6.628906 82.507812 7.503906 L 82.507812 19.089844 C 82.507812 19.960938 83.226562 20.675781 84.105469 20.675781 L 95.777344 20.675781 C 96.660156 20.675781 97.378906 19.960938 97.378906 19.089844 L 97.378906 7.503906 C 97.378906 6.628906 96.660156 5.914062 95.777344 5.914062 Z M 84.105469 5.914062 " fill-opacity="1" fill-rule="nonzero"/><path fill="#e42527" d="M 52.066406 9.625 L 50.492188 13.117188 C 50.472656 13.15625 50.453125 13.191406 50.433594 13.222656 L 51.046875 16.980469 C 51.1875 17.84375 50.59375 18.660156 49.726562 18.796875 L 38.199219 20.648438 C 37.78125 20.714844 37.355469 20.617188 37.007812 20.371094 C 36.660156 20.125 36.433594 19.757812 36.367188 19.339844 L 34.503906 7.898438 C 34.4375 7.484375 34.535156 7.058594 34.78125 6.714844 C 35.03125 6.371094 35.402344 6.148438 35.824219 6.082031 L 47.347656 4.230469 C 47.433594 4.214844 47.523438 4.210938 47.601562 4.210938 C 48.367188 4.210938 49.054688 4.765625 49.179688 5.546875 L 49.800781 9.328125 L 51.425781 5.710938 L 51.339844 5.203125 C 51.007812 3.160156 49.0625 1.761719 47.003906 2.09375 L 35.476562 3.945312 C 34.484375 4.097656 33.605469 4.632812 33.015625 5.445312 C 32.425781 6.257812 32.191406 7.25 32.351562 8.242188 L 34.214844 19.683594 C 34.375 20.675781 34.917969 21.542969 35.734375 22.128906 C 36.382812 22.601562 37.148438 22.839844 37.941406 22.839844 C 38.140625 22.839844 38.347656 22.824219 38.554688 22.792969 L 50.082031 20.941406 C 52.140625 20.609375 53.546875 18.679688 53.210938 16.636719 Z M 52.066406 9.625 " fill-opacity="1" fill-rule="nonzero"/><path fill="#226db4" d="M 65.890625 15.089844 L 67.582031 11.324219 L 67.101562 7.828125 C 67.042969 7.410156 67.15625 6.992188 67.417969 6.65625 C 67.675781 6.320312 68.050781 6.101562 68.476562 6.046875 L 80.042969 4.488281 C 80.117188 4.480469 80.1875 4.472656 80.261719 4.472656 C 80.609375 4.472656 80.941406 4.585938 81.226562 4.796875 C 81.28125 4.839844 81.328125 4.882812 81.375 4.925781 C 81.886719 4.386719 82.5625 4.003906 83.3125 3.839844 C 83.101562 3.546875 82.847656 3.289062 82.546875 3.066406 C 81.742188 2.457031 80.75 2.199219 79.75 2.332031 L 68.167969 3.890625 C 67.171875 4.023438 66.277344 4.539062 65.671875 5.339844 C 65.058594 6.140625 64.796875 7.125 64.929688 8.117188 Z M 65.890625 15.089844 " fill-opacity="1" fill-rule="nonzero"/><path fill="#226db4" d="M 85.570312 17.027344 L 84.054688 5.914062 C 83.199219 5.941406 82.515625 6.644531 82.515625 7.496094 L 82.515625 10.757812 L 83.414062 17.316406 C 83.472656 17.734375 83.359375 18.148438 83.101562 18.488281 C 82.839844 18.824219 82.46875 19.042969 82.039062 19.09375 L 70.476562 20.65625 C 70.054688 20.714844 69.636719 20.601562 69.296875 20.34375 C 68.957031 20.085938 68.734375 19.71875 68.683594 19.292969 L 68.148438 15.398438 L 66.457031 19.160156 L 66.515625 19.585938 C 66.648438 20.578125 67.171875 21.460938 67.976562 22.066406 C 68.640625 22.566406 69.433594 22.832031 70.261719 22.832031 C 70.433594 22.832031 70.609375 22.820312 70.78125 22.796875 L 82.335938 21.25 C 83.332031 21.117188 84.226562 20.601562 84.832031 19.804688 C 85.445312 19.003906 85.707031 18.015625 85.570312 17.027344 Z M 85.570312 17.027344 " fill-opacity="1" fill-rule="nonzero"/><path fill="#000000" d="M 52.9375 28.339844 L 54.589844 25.917969 L 53.230469 25.917969 C 53.160156 25.917969 53.097656 25.859375 53.097656 25.789062 L 53.097656 25.464844 C 53.097656 25.390625 53.160156 25.332031 53.230469 25.332031 L 55.464844 25.332031 C 55.535156 25.332031 55.597656 25.390625 55.597656 25.464844 L 55.597656 25.589844 C 55.597656 25.617188 55.589844 25.640625 55.578125 25.660156 L 53.957031 28.082031 L 55.410156 28.082031 C 55.484375 28.082031 55.542969 28.140625 55.542969 28.214844 L 55.542969 28.539062 C 55.542969 28.609375 55.484375 28.671875 55.410156 28.671875 L 53.050781 28.671875 C 52.980469 28.671875 52.917969 28.609375 52.917969 28.539062 L 52.917969 28.417969 C 52.910156 28.386719 52.925781 28.359375 52.9375 28.339844 Z M 52.9375 28.339844 " fill-opacity="1" fill-rule="nonzero"/><path fill="#000000" d="M 59.894531 26.976562 C 59.894531 25.984375 60.628906 25.273438 61.625 25.273438 C 62.660156 25.273438 63.359375 25.972656 63.359375 26.984375 C 63.359375 28.007812 62.644531 28.71875 61.613281 28.71875 C 60.574219 28.71875 59.894531 28.007812 59.894531 26.976562 Z M 62.566406 26.992188 C 62.566406 26.390625 62.273438 25.875 61.613281 25.875 C 60.945312 25.875 60.695312 26.410156 60.695312 27.019531 C 60.695312 27.59375 61.007812 28.121094 61.648438 28.121094 C 62.304688 28.117188 62.566406 27.554688 62.566406 26.992188 Z M 62.566406 26.992188 " fill-opacity="1" fill-rule="nonzero"/><path fill="#000000" d="M 68.097656 25.324219 L 68.589844 25.324219 C 68.664062 25.324219 68.722656 25.382812 68.722656 25.457031 L 68.722656 26.6875 L 70.121094 26.6875 L 70.121094 25.457031 C 70.121094 25.382812 70.179688 25.324219 70.253906 25.324219 L 70.746094 25.324219 C 70.820312 25.324219 70.882812 25.382812 70.882812 25.457031 L 70.882812 28.53125 C 70.882812 28.605469 70.820312 28.664062 70.746094 28.664062 L 70.261719 28.664062 C 70.1875 28.664062 70.128906 28.605469 70.128906 28.53125 L 70.128906 27.289062 L 68.730469 27.289062 L 68.730469 28.53125 C 68.730469 28.605469 68.667969 28.664062 68.597656 28.664062 L 68.101562 28.664062 C 68.03125 28.664062 67.96875 28.605469 67.96875 28.53125 L 67.96875 25.457031 C 67.960938 25.382812 68.023438 25.324219 68.097656 25.324219 Z M 68.097656 25.324219 " fill-opacity="1" fill-rule="nonzero"/><path fill="#000000" d="M 75.484375 26.976562 C 75.484375 25.984375 76.21875 25.273438 77.21875 25.273438 C 78.25 25.273438 78.949219 25.972656 78.949219 26.984375 C 78.949219 28.007812 78.238281 28.71875 77.203125 28.71875 C 76.164062 28.71875 75.484375 28.007812 75.484375 26.976562 Z M 78.148438 26.992188 C 78.148438 26.390625 77.855469 25.875 77.195312 25.875 C 76.53125 25.875 76.277344 26.410156 76.277344 27.019531 C 76.277344 27.59375 76.589844 28.121094 77.230469 28.121094 C 77.890625 28.117188 78.148438 27.554688 78.148438 26.992188 Z M 78.148438 26.992188 " fill-opacity="1" fill-rule="nonzero"/></svg>