<svg xmlns="http://www.w3.org/2000/svg" xmlns:xlink="http://www.w3.org/1999/xlink" width="60" zoomAndPan="magnify" viewBox="0 0 45 44.999999" height="60" preserveAspectRatio="xMidYMid meet" version="1.0"><rect x="-4.5" width="54" fill="#ffffff" y="-4.5" height="53.999999" fill-opacity="1"/><rect x="-4.5" width="54" fill="#ff9201" y="-4.5" height="53.999999" fill-opacity="1"/><path fill="#ffffff" d="M 44.796875 22.785156 L 36.410156 14.699219 C 36.21875 14.511719 35.941406 14.464844 35.703125 14.566406 C 35.457031 14.671875 35.304688 14.902344 35.304688 15.167969 L 35.304688 20.144531 C 31.273438 20.441406 27.484375 22.171875 24.617188 25.023438 C 21.417969 28.199219 19.65625 32.421875 19.65625 36.90625 L 19.65625 45.851562 C 19.65625 46.207031 19.953125 46.5 20.3125 46.5 C 20.671875 46.5 20.96875 46.207031 20.96875 45.851562 L 20.96875 36.90625 C 20.96875 32.765625 22.59375 28.871094 25.539062 25.9375 C 28.332031 23.164062 32.039062 21.554688 35.980469 21.40625 C 36.335938 21.398438 36.613281 21.109375 36.613281 20.757812 L 36.613281 16.703125 L 43.402344 23.25 L 36.605469 29.796875 L 36.605469 25.777344 C 36.605469 25.597656 36.53125 25.421875 36.398438 25.304688 C 36.269531 25.183594 36.09375 25.121094 35.914062 25.125 C 32.886719 25.289062 30.066406 26.589844 27.964844 28.785156 C 25.859375 30.984375 24.699219 33.867188 24.699219 36.902344 L 24.699219 45.84375 C 24.699219 46.203125 24.992188 46.496094 25.351562 46.496094 C 25.714844 46.496094 26.007812 46.203125 26.007812 45.84375 L 26.007812 36.902344 C 26.007812 31.554688 29.984375 27.113281 35.296875 26.484375 L 35.296875 31.335938 C 35.296875 31.597656 35.457031 31.835938 35.695312 31.9375 C 35.9375 32.039062 36.21875 31.988281 36.40625 31.808594 L 44.789062 23.722656 C 44.914062 23.601562 44.984375 23.429688 44.984375 23.253906 C 44.992188 23.078125 44.921875 22.910156 44.796875 22.785156 Z M 44.796875 22.785156 " fill-opacity="1" fill-rule="nonzero"/><path fill="#ffffff" d="M 9.019531 21.40625 C 12.960938 21.554688 16.667969 23.164062 19.460938 25.9375 C 19.71875 26.191406 20.132812 26.191406 20.390625 25.9375 C 20.644531 25.683594 20.644531 25.273438 20.390625 25.015625 C 17.519531 22.167969 13.734375 20.4375 9.703125 20.140625 L 9.703125 15.164062 C 9.703125 14.902344 9.542969 14.664062 9.304688 14.5625 C 9.0625 14.460938 8.78125 14.511719 8.59375 14.691406 L 0.203125 22.785156 C 0.078125 22.902344 0.0078125 23.078125 0.0078125 23.25 C 0.0078125 23.421875 0.078125 23.597656 0.203125 23.714844 L 8.589844 31.800781 C 8.714844 31.921875 8.875 31.988281 9.046875 31.988281 C 9.136719 31.988281 9.222656 31.96875 9.304688 31.9375 C 9.550781 31.835938 9.703125 31.601562 9.703125 31.335938 L 9.703125 26.484375 C 12.96875 26.882812 15.898438 28.792969 17.570312 31.648438 C 17.65625 31.800781 17.796875 31.910156 17.96875 31.953125 C 18.136719 31.996094 18.308594 31.976562 18.464844 31.890625 C 18.773438 31.710938 18.882812 31.308594 18.699219 31 C 16.675781 27.542969 13.078125 25.347656 9.082031 25.128906 C 8.902344 25.121094 8.726562 25.183594 8.59375 25.308594 C 8.464844 25.433594 8.386719 25.601562 8.386719 25.78125 L 8.386719 29.800781 L 1.601562 23.25 L 8.394531 16.703125 L 8.394531 20.757812 C 8.386719 21.109375 8.664062 21.390625 9.019531 21.40625 Z M 9.019531 21.40625 " fill-opacity="1" fill-rule="nonzero"/><path fill="#ffffff" d="M 14.550781 9.625 L 19.652344 9.625 L 19.652344 22.421875 C 19.652344 22.777344 19.945312 23.070312 20.308594 23.070312 C 20.667969 23.070312 20.960938 22.777344 20.960938 22.421875 L 20.960938 8.976562 C 20.960938 8.617188 20.667969 8.324219 20.308594 8.324219 L 16.101562 8.324219 L 22.691406 1.578125 L 29.28125 8.324219 L 25.035156 8.324219 C 24.675781 8.324219 24.382812 8.617188 24.382812 8.976562 L 24.382812 22.421875 C 24.382812 22.777344 24.675781 23.070312 25.035156 23.070312 C 25.398438 23.070312 25.691406 22.777344 25.691406 22.421875 L 25.691406 9.625 L 30.828125 9.625 C 31.089844 9.625 31.332031 9.46875 31.433594 9.230469 C 31.539062 8.992188 31.484375 8.710938 31.304688 8.523438 L 23.160156 0.195312 C 23.039062 0.0703125 22.867188 0 22.691406 0 C 22.515625 0 22.34375 0.0703125 22.222656 0.195312 L 14.082031 8.523438 C 13.898438 8.714844 13.847656 8.992188 13.953125 9.230469 C 14.054688 9.472656 14.289062 9.625 14.550781 9.625 Z M 14.550781 9.625 " fill-opacity="1" fill-rule="nonzero"/></svg>