<svg xmlns="http://www.w3.org/2000/svg" xmlns:xlink="http://www.w3.org/1999/xlink" width="60" zoomAndPan="magnify" viewBox="0 0 45 44.999999" height="60" preserveAspectRatio="xMidYMid meet" version="1.0"><rect x="-4.5" width="54" fill="#ffffff" y="-4.5" height="53.999999" fill-opacity="1"/><rect x="-4.5" width="54" fill="#ff9201" y="-4.5" height="53.999999" fill-opacity="1"/><path fill="#ffffff" d="M 5.625 8.035156 C 5.304688 8.035156 4.996094 7.972656 4.703125 7.851562 C 4.40625 7.730469 4.144531 7.554688 3.921875 7.328125 C 3.695312 7.105469 3.519531 6.84375 3.398438 6.546875 C 3.277344 6.253906 3.214844 5.945312 3.214844 5.625 C 3.214844 5.304688 3.277344 4.996094 3.398438 4.703125 C 3.519531 4.40625 3.695312 4.144531 3.921875 3.921875 C 4.144531 3.695312 4.40625 3.519531 4.703125 3.398438 C 4.996094 3.277344 5.304688 3.214844 5.625 3.214844 C 5.945312 3.214844 6.253906 3.277344 6.546875 3.398438 C 6.84375 3.519531 7.105469 3.695312 7.328125 3.921875 C 7.554688 4.144531 7.730469 4.40625 7.851562 4.703125 C 7.972656 4.996094 8.035156 5.304688 8.035156 5.625 C 8.035156 5.945312 7.972656 6.25 7.851562 6.546875 C 7.730469 6.84375 7.554688 7.101562 7.328125 7.328125 C 7.101562 7.554688 6.84375 7.730469 6.546875 7.851562 C 6.25 7.972656 5.945312 8.035156 5.625 8.035156 Z M 5.625 4.820312 C 5.402344 4.820312 5.214844 4.898438 5.058594 5.058594 C 4.898438 5.214844 4.820312 5.402344 4.820312 5.625 C 4.820312 5.847656 4.898438 6.035156 5.058594 6.191406 C 5.214844 6.351562 5.402344 6.429688 5.625 6.429688 C 5.847656 6.429688 6.035156 6.351562 6.191406 6.191406 C 6.351562 6.035156 6.429688 5.847656 6.429688 5.625 C 6.429688 5.402344 6.351562 5.214844 6.191406 5.058594 C 6.035156 4.898438 5.847656 4.820312 5.625 4.820312 Z M 5.625 4.820312 " fill-opacity="1" fill-rule="nonzero"/><path fill="#ffffff" d="M 5.625 16.070312 C 5.402344 16.070312 5.214844 15.992188 5.054688 15.835938 C 4.851562 15.628906 0 10.703125 0 5.625 C 0 5.253906 0.0351562 4.890625 0.109375 4.527344 C 0.179688 4.164062 0.285156 3.8125 0.429688 3.472656 C 0.570312 3.132812 0.742188 2.808594 0.949219 2.5 C 1.152344 2.191406 1.386719 1.910156 1.648438 1.648438 C 1.910156 1.386719 2.191406 1.152344 2.5 0.949219 C 2.808594 0.742188 3.132812 0.570312 3.472656 0.429688 C 3.8125 0.285156 4.164062 0.179688 4.527344 0.109375 C 4.890625 0.0351562 5.253906 0 5.625 0 C 5.996094 0 6.359375 0.0351562 6.722656 0.109375 C 7.085938 0.179688 7.4375 0.285156 7.777344 0.429688 C 8.117188 0.570312 8.441406 0.742188 8.75 0.949219 C 9.058594 1.152344 9.339844 1.386719 9.601562 1.648438 C 9.863281 1.910156 10.097656 2.191406 10.300781 2.5 C 10.507812 2.808594 10.679688 3.132812 10.820312 3.472656 C 10.964844 3.8125 11.070312 4.164062 11.140625 4.527344 C 11.214844 4.890625 11.25 5.253906 11.25 5.625 C 11.25 10.703125 6.398438 15.628906 6.195312 15.835938 C 6.035156 15.992188 5.847656 16.070312 5.625 16.070312 Z M 5.625 1.605469 C 5.359375 1.609375 5.101562 1.632812 4.839844 1.683594 C 4.582031 1.738281 4.332031 1.8125 4.089844 1.914062 C 3.84375 2.015625 3.613281 2.140625 3.394531 2.285156 C 3.175781 2.433594 2.972656 2.597656 2.785156 2.785156 C 2.597656 2.972656 2.433594 3.175781 2.285156 3.394531 C 2.140625 3.613281 2.015625 3.84375 1.914062 4.089844 C 1.8125 4.332031 1.738281 4.582031 1.683594 4.839844 C 1.632812 5.101562 1.609375 5.359375 1.605469 5.625 C 1.605469 9.089844 4.394531 12.667969 5.625 14.078125 C 6.851562 12.667969 9.644531 9.082031 9.644531 5.625 C 9.640625 5.359375 9.617188 5.101562 9.566406 4.839844 C 9.511719 4.582031 9.4375 4.332031 9.335938 4.089844 C 9.234375 3.84375 9.109375 3.613281 8.964844 3.394531 C 8.816406 3.175781 8.652344 2.972656 8.464844 2.785156 C 8.277344 2.597656 8.074219 2.433594 7.855469 2.285156 C 7.636719 2.140625 7.40625 2.015625 7.160156 1.914062 C 6.917969 1.8125 6.667969 1.738281 6.410156 1.683594 C 6.148438 1.632812 5.890625 1.609375 5.625 1.605469 Z M 5.625 1.605469 " fill-opacity="1" fill-rule="nonzero"/><path fill="#ffffff" d="M 38.570312 35.355469 C 38.144531 35.355469 37.734375 35.277344 37.339844 35.113281 C 36.949219 34.949219 36.601562 34.71875 36.296875 34.414062 C 35.996094 34.113281 35.765625 33.765625 35.601562 33.371094 C 35.4375 32.980469 35.355469 32.570312 35.355469 32.144531 C 35.355469 31.714844 35.4375 31.304688 35.601562 30.914062 C 35.765625 30.519531 35.996094 30.171875 36.296875 29.871094 C 36.601562 29.570312 36.949219 29.335938 37.339844 29.171875 C 37.734375 29.011719 38.144531 28.929688 38.570312 28.929688 C 38.996094 28.929688 39.40625 29.011719 39.800781 29.171875 C 40.195312 29.335938 40.542969 29.570312 40.84375 29.871094 C 41.144531 30.171875 41.378906 30.519531 41.542969 30.914062 C 41.703125 31.304688 41.785156 31.714844 41.785156 32.144531 C 41.785156 32.570312 41.703125 32.980469 41.539062 33.371094 C 41.375 33.765625 41.144531 34.113281 40.84375 34.414062 C 40.542969 34.714844 40.195312 34.949219 39.800781 35.113281 C 39.40625 35.273438 38.996094 35.355469 38.570312 35.355469 Z M 38.570312 30.535156 C 38.359375 30.535156 38.152344 30.578125 37.957031 30.65625 C 37.757812 30.738281 37.585938 30.855469 37.433594 31.007812 C 37.285156 31.15625 37.167969 31.332031 37.085938 31.527344 C 37.003906 31.726562 36.964844 31.929688 36.964844 32.144531 C 36.964844 32.355469 37.003906 32.5625 37.085938 32.757812 C 37.167969 32.953125 37.285156 33.128906 37.433594 33.277344 C 37.585938 33.429688 37.757812 33.546875 37.957031 33.628906 C 38.152344 33.710938 38.359375 33.75 38.570312 33.75 C 38.785156 33.75 38.988281 33.710938 39.1875 33.628906 C 39.382812 33.546875 39.558594 33.429688 39.707031 33.277344 C 39.859375 33.128906 39.976562 32.953125 40.054688 32.757812 C 40.136719 32.5625 40.179688 32.355469 40.179688 32.144531 C 40.179688 31.929688 40.136719 31.726562 40.054688 31.527344 C 39.972656 31.332031 39.859375 31.15625 39.707031 31.007812 C 39.558594 30.855469 39.382812 30.738281 39.1875 30.660156 C 38.988281 30.578125 38.785156 30.535156 38.570312 30.535156 Z M 38.570312 30.535156 " fill-opacity="1" fill-rule="nonzero"/><path fill="#ffffff" d="M 38.570312 45 C 38.320312 45 38.113281 44.902344 37.953125 44.707031 C 37.714844 44.421875 32.144531 37.617188 32.144531 32.144531 C 32.144531 31.722656 32.183594 31.300781 32.265625 30.890625 C 32.347656 30.476562 32.46875 30.074219 32.632812 29.683594 C 32.792969 29.292969 32.992188 28.921875 33.226562 28.570312 C 33.460938 28.21875 33.726562 27.894531 34.027344 27.597656 C 34.324219 27.296875 34.648438 27.03125 35 26.796875 C 35.351562 26.5625 35.722656 26.363281 36.109375 26.203125 C 36.5 26.042969 36.902344 25.921875 37.316406 25.835938 C 37.730469 25.753906 38.148438 25.714844 38.570312 25.714844 C 38.992188 25.714844 39.410156 25.753906 39.824219 25.835938 C 40.238281 25.921875 40.640625 26.042969 41.03125 26.203125 C 41.421875 26.363281 41.792969 26.5625 42.144531 26.796875 C 42.492188 27.03125 42.820312 27.296875 43.117188 27.597656 C 43.414062 27.894531 43.683594 28.21875 43.917969 28.570312 C 44.152344 28.921875 44.347656 29.292969 44.511719 29.683594 C 44.671875 30.074219 44.792969 30.476562 44.875 30.890625 C 44.957031 31.300781 45 31.722656 45 32.144531 C 45 37.617188 39.425781 44.421875 39.191406 44.707031 C 39.03125 44.902344 38.824219 45 38.570312 45 Z M 38.570312 27.320312 C 38.253906 27.320312 37.941406 27.351562 37.632812 27.414062 C 37.320312 27.476562 37.019531 27.570312 36.726562 27.691406 C 36.433594 27.8125 36.15625 27.960938 35.894531 28.136719 C 35.632812 28.3125 35.386719 28.511719 35.164062 28.734375 C 34.941406 28.957031 34.738281 29.203125 34.5625 29.464844 C 34.386719 29.730469 34.238281 30.007812 34.117188 30.296875 C 33.996094 30.589844 33.90625 30.890625 33.84375 31.203125 C 33.78125 31.511719 33.75 31.828125 33.75 32.144531 C 33.75 36.03125 37.144531 40.976562 38.570312 42.886719 C 40 40.976562 43.394531 36.03125 43.394531 32.144531 C 43.390625 31.828125 43.363281 31.511719 43.300781 31.203125 C 43.238281 30.890625 43.144531 30.589844 43.023438 30.296875 C 42.902344 30.007812 42.753906 29.730469 42.578125 29.464844 C 42.402344 29.203125 42.203125 28.957031 41.980469 28.734375 C 41.753906 28.511719 41.511719 28.3125 41.25 28.136719 C 40.984375 27.960938 40.707031 27.8125 40.414062 27.691406 C 40.125 27.570312 39.820312 27.476562 39.511719 27.414062 C 39.203125 27.351562 38.886719 27.320312 38.570312 27.320312 Z M 38.570312 27.320312 " fill-opacity="1" fill-rule="nonzero"/><path fill="#ffffff" d="M 38.570312 45 L 28.125 45 C 27.753906 45 27.390625 44.964844 27.027344 44.890625 C 26.664062 44.820312 26.3125 44.710938 25.972656 44.570312 C 25.632812 44.429688 25.308594 44.253906 25 44.050781 C 24.695312 43.84375 24.410156 43.613281 24.148438 43.351562 C 23.886719 43.089844 23.65625 42.804688 23.449219 42.5 C 23.246094 42.191406 23.070312 41.867188 22.929688 41.527344 C 22.789062 41.183594 22.679688 40.835938 22.609375 40.472656 C 22.535156 40.109375 22.5 39.746094 22.5 39.375 C 22.5 39.109375 22.472656 38.851562 22.421875 38.589844 C 22.371094 38.332031 22.292969 38.082031 22.191406 37.839844 C 22.09375 37.59375 21.96875 37.363281 21.820312 37.144531 C 21.675781 36.925781 21.507812 36.722656 21.320312 36.535156 C 21.136719 36.347656 20.933594 36.183594 20.714844 36.035156 C 20.492188 35.890625 20.261719 35.765625 20.019531 35.664062 C 19.773438 35.5625 19.523438 35.488281 19.265625 35.433594 C 19.007812 35.382812 18.746094 35.359375 18.480469 35.355469 L 10.445312 35.355469 C 10.078125 35.355469 9.710938 35.320312 9.347656 35.25 C 8.988281 35.175781 8.636719 35.070312 8.292969 34.929688 C 7.953125 34.789062 7.628906 34.613281 7.320312 34.410156 C 7.015625 34.203125 6.730469 33.972656 6.46875 33.710938 C 6.207031 33.449219 5.972656 33.164062 5.769531 32.855469 C 5.5625 32.550781 5.390625 32.226562 5.25 31.882812 C 5.109375 31.542969 5 31.191406 4.929688 30.828125 C 4.859375 30.46875 4.820312 30.101562 4.820312 29.730469 C 4.820312 29.363281 4.859375 28.996094 4.929688 28.632812 C 5 28.273438 5.109375 27.921875 5.25 27.578125 C 5.390625 27.238281 5.5625 26.914062 5.769531 26.605469 C 5.972656 26.300781 6.207031 26.015625 6.46875 25.753906 C 6.730469 25.492188 7.015625 25.261719 7.320312 25.054688 C 7.628906 24.851562 7.953125 24.675781 8.292969 24.535156 C 8.636719 24.394531 8.988281 24.289062 9.347656 24.214844 C 9.710938 24.144531 10.078125 24.105469 10.445312 24.105469 L 31.339844 24.105469 C 31.601562 24.105469 31.863281 24.082031 32.125 24.03125 C 32.382812 23.976562 32.632812 23.902344 32.875 23.800781 C 33.121094 23.699219 33.351562 23.578125 33.570312 23.429688 C 33.789062 23.285156 33.992188 23.117188 34.179688 22.929688 C 34.367188 22.742188 34.535156 22.539062 34.679688 22.320312 C 34.828125 22.101562 34.949219 21.871094 35.050781 21.625 C 35.152344 21.382812 35.226562 21.132812 35.28125 20.875 C 35.332031 20.613281 35.355469 20.351562 35.355469 20.089844 C 35.355469 19.824219 35.332031 19.5625 35.28125 19.304688 C 35.226562 19.046875 35.152344 18.796875 35.050781 18.550781 C 34.949219 18.308594 34.828125 18.078125 34.679688 17.855469 C 34.535156 17.636719 34.367188 17.433594 34.179688 17.25 C 33.992188 17.0625 33.789062 16.894531 33.570312 16.75 C 33.351562 16.601562 33.121094 16.476562 32.875 16.378906 C 32.632812 16.277344 32.382812 16.199219 32.125 16.148438 C 31.863281 16.097656 31.601562 16.070312 31.339844 16.070312 L 5.625 16.070312 C 5.402344 16.070312 5.214844 15.992188 5.058594 15.835938 C 4.898438 15.679688 4.820312 15.488281 4.820312 15.269531 C 4.820312 15.046875 4.898438 14.855469 5.058594 14.699219 C 5.214844 14.542969 5.402344 14.464844 5.625 14.464844 L 31.339844 14.464844 C 31.707031 14.464844 32.074219 14.5 32.4375 14.574219 C 32.800781 14.644531 33.152344 14.75 33.492188 14.890625 C 33.832031 15.035156 34.15625 15.207031 34.464844 15.414062 C 34.769531 15.617188 35.054688 15.851562 35.316406 16.113281 C 35.578125 16.371094 35.8125 16.65625 36.015625 16.964844 C 36.222656 17.269531 36.394531 17.59375 36.535156 17.9375 C 36.675781 18.277344 36.785156 18.628906 36.855469 18.992188 C 36.929688 19.355469 36.964844 19.71875 36.964844 20.089844 C 36.964844 20.457031 36.929688 20.824219 36.855469 21.1875 C 36.785156 21.550781 36.675781 21.902344 36.535156 22.242188 C 36.394531 22.582031 36.222656 22.90625 36.015625 23.214844 C 35.8125 23.519531 35.578125 23.804688 35.316406 24.066406 C 35.054688 24.328125 34.769531 24.5625 34.464844 24.765625 C 34.15625 24.972656 33.832031 25.144531 33.492188 25.285156 C 33.152344 25.425781 32.800781 25.535156 32.4375 25.605469 C 32.074219 25.679688 31.707031 25.714844 31.339844 25.714844 L 10.445312 25.714844 C 10.183594 25.714844 9.921875 25.742188 9.664062 25.792969 C 9.40625 25.84375 9.152344 25.917969 8.910156 26.019531 C 8.667969 26.121094 8.433594 26.246094 8.214844 26.390625 C 7.996094 26.539062 7.792969 26.707031 7.605469 26.890625 C 7.421875 27.078125 7.253906 27.28125 7.109375 27.5 C 6.960938 27.71875 6.835938 27.953125 6.738281 28.195312 C 6.636719 28.4375 6.558594 28.691406 6.507812 28.949219 C 6.457031 29.207031 6.429688 29.46875 6.429688 29.730469 C 6.429688 29.996094 6.457031 30.257812 6.507812 30.515625 C 6.558594 30.773438 6.636719 31.027344 6.738281 31.269531 C 6.835938 31.511719 6.960938 31.746094 7.109375 31.964844 C 7.253906 32.183594 7.421875 32.386719 7.605469 32.570312 C 7.792969 32.757812 7.996094 32.925781 8.214844 33.070312 C 8.433594 33.21875 8.667969 33.34375 8.910156 33.445312 C 9.152344 33.542969 9.40625 33.621094 9.664062 33.671875 C 9.921875 33.722656 10.183594 33.75 10.445312 33.75 L 18.480469 33.75 C 18.851562 33.75 19.21875 33.785156 19.578125 33.859375 C 19.941406 33.929688 20.292969 34.039062 20.632812 34.179688 C 20.976562 34.320312 21.296875 34.496094 21.605469 34.699219 C 21.914062 34.90625 22.195312 35.136719 22.457031 35.398438 C 22.71875 35.660156 22.953125 35.945312 23.15625 36.25 C 23.363281 36.558594 23.535156 36.882812 23.675781 37.222656 C 23.820312 37.5625 23.925781 37.914062 23.996094 38.277344 C 24.070312 38.640625 24.105469 39.003906 24.105469 39.375 C 24.109375 39.640625 24.132812 39.898438 24.183594 40.160156 C 24.238281 40.417969 24.3125 40.667969 24.414062 40.910156 C 24.515625 41.15625 24.640625 41.386719 24.785156 41.605469 C 24.933594 41.824219 25.097656 42.027344 25.285156 42.214844 C 25.472656 42.402344 25.675781 42.566406 25.894531 42.714844 C 26.113281 42.859375 26.34375 42.984375 26.589844 43.085938 C 26.832031 43.1875 27.082031 43.261719 27.339844 43.316406 C 27.601562 43.367188 27.859375 43.390625 28.125 43.394531 L 38.570312 43.394531 C 38.792969 43.394531 38.984375 43.472656 39.140625 43.628906 C 39.296875 43.785156 39.375 43.972656 39.375 44.195312 C 39.375 44.417969 39.296875 44.609375 39.140625 44.765625 C 38.984375 44.921875 38.792969 45 38.570312 45 Z M 38.570312 45 " fill-opacity="1" fill-rule="nonzero"/></svg>