<svg xmlns="http://www.w3.org/2000/svg" xmlns:xlink="http://www.w3.org/1999/xlink" width="60" zoomAndPan="magnify" viewBox="0 0 45 44.999999" height="60" preserveAspectRatio="xMidYMid meet" version="1.0"><defs><clipPath id="b006d5272b"><path d="M 0 16.082031 L 20 16.082031 L 20 42 L 0 42 Z M 0 16.082031 " clip-rule="nonzero"/></clipPath><clipPath id="77ff7a31be"><path d="M 15 5 L 26 5 L 26 13 L 15 13 Z M 15 5 " clip-rule="nonzero"/></clipPath><clipPath id="37dc59f29e"><path d="M 13.558594 10.804688 L 19.757812 2.332031 L 25.808594 6.757812 L 19.613281 15.234375 Z M 13.558594 10.804688 " clip-rule="nonzero"/></clipPath><clipPath id="a589b6e292"><path d="M 19.578125 2.578125 L 13.378906 11.050781 L 19.433594 15.480469 L 25.628906 7.003906 Z M 19.578125 2.578125 " clip-rule="nonzero"/></clipPath><clipPath id="30b283b00b"><path d="M 27 19 L 38 19 L 38 27 L 27 27 Z M 27 19 " clip-rule="nonzero"/></clipPath><clipPath id="f0a3135408"><path d="M 27.519531 25.214844 L 33.5 16.582031 L 39.664062 20.851562 L 33.6875 29.484375 Z M 27.519531 25.214844 " clip-rule="nonzero"/></clipPath><clipPath id="7e84b56f61"><path d="M 33.9375 29.65625 L 39.914062 21.023438 L 33.75 16.753906 L 27.769531 25.386719 Z M 33.9375 29.65625 " clip-rule="nonzero"/></clipPath></defs><rect x="-4.5" width="54" fill="#ffffff" y="-4.5" height="53.999999" fill-opacity="1"/><rect x="-4.5" width="54" fill="#ff9201" y="-4.5" height="53.999999" fill-opacity="1"/><g clip-path="url(#b006d5272b)"><path fill="#ffffff" d="M 0.898438 40.527344 L 0.898438 17.464844 C 0.898438 17.210938 1.101562 17.007812 1.347656 17.007812 L 19.242188 17.007812 C 19.0625 16.480469 18.570312 16.09375 17.984375 16.09375 L 1.347656 16.09375 C 0.605469 16.09375 0 16.710938 0 17.464844 L 0 40.527344 C 0 41.28125 0.605469 41.894531 1.347656 41.894531 L 1.796875 41.894531 L 1.796875 40.984375 L 1.347656 40.984375 C 1.101562 40.984375 0.898438 40.777344 0.898438 40.527344 Z M 0.898438 40.527344 " fill-opacity="1" fill-rule="nonzero"/></g><path fill="#ffffff" d="M 3.597656 42.351562 L 3.597656 19.289062 C 3.597656 19.039062 3.800781 18.832031 4.046875 18.832031 L 21.941406 18.832031 C 21.761719 18.308594 21.265625 17.921875 20.683594 17.921875 L 4.046875 17.921875 C 3.304688 17.921875 2.699219 18.535156 2.699219 19.289062 L 2.699219 42.351562 C 2.699219 43.105469 3.304688 43.722656 4.046875 43.722656 L 4.496094 43.722656 L 4.496094 42.808594 L 4.046875 42.808594 C 3.800781 42.808594 3.597656 42.605469 3.597656 42.351562 Z M 3.597656 42.351562 " fill-opacity="1" fill-rule="nonzero"/><path fill="#ffffff" d="M 20.007812 23.398438 L 10.117188 23.398438 C 9.871094 23.398438 9.667969 23.605469 9.667969 23.855469 C 9.667969 24.109375 9.871094 24.3125 10.117188 24.3125 L 20.007812 24.3125 C 20.253906 24.3125 20.457031 24.109375 20.457031 23.855469 C 20.457031 23.605469 20.253906 23.398438 20.007812 23.398438 Z M 20.007812 23.398438 " fill-opacity="1" fill-rule="nonzero"/><path fill="#ffffff" d="M 20.007812 25.683594 L 10.117188 25.683594 C 9.871094 25.683594 9.667969 25.890625 9.667969 26.140625 C 9.667969 26.390625 9.871094 26.597656 10.117188 26.597656 L 20.007812 26.597656 C 20.253906 26.597656 20.457031 26.390625 20.457031 26.140625 C 20.457031 25.890625 20.253906 25.683594 20.007812 25.683594 Z M 20.007812 25.683594 " fill-opacity="1" fill-rule="nonzero"/><path fill="#ffffff" d="M 20.007812 27.96875 L 10.117188 27.96875 C 9.871094 27.96875 9.667969 28.171875 9.667969 28.425781 C 9.667969 28.675781 9.871094 28.878906 10.117188 28.878906 L 20.007812 28.878906 C 20.253906 28.878906 20.457031 28.675781 20.457031 28.425781 C 20.457031 28.171875 20.253906 27.96875 20.007812 27.96875 Z M 20.007812 27.96875 " fill-opacity="1" fill-rule="nonzero"/><path fill="#ffffff" d="M 20.007812 30.25 L 10.117188 30.25 C 9.871094 30.25 9.667969 30.457031 9.667969 30.707031 C 9.667969 30.957031 9.871094 31.164062 10.117188 31.164062 L 20.007812 31.164062 C 20.253906 31.164062 20.457031 30.957031 20.457031 30.707031 C 20.457031 30.457031 20.253906 30.25 20.007812 30.25 Z M 20.007812 30.25 " fill-opacity="1" fill-rule="nonzero"/><path fill="#ffffff" d="M 20.007812 32.535156 L 10.117188 32.535156 C 9.871094 32.535156 9.667969 32.738281 9.667969 32.992188 C 9.667969 33.242188 9.871094 33.449219 10.117188 33.449219 L 20.007812 33.449219 C 20.253906 33.449219 20.457031 33.242188 20.457031 32.992188 C 20.457031 32.738281 20.253906 32.535156 20.007812 32.535156 Z M 20.007812 32.535156 " fill-opacity="1" fill-rule="nonzero"/><path fill="#ffffff" d="M 20.007812 34.816406 L 10.117188 34.816406 C 9.871094 34.816406 9.667969 35.023438 9.667969 35.273438 C 9.667969 35.527344 9.871094 35.730469 10.117188 35.730469 L 20.007812 35.730469 C 20.253906 35.730469 20.457031 35.527344 20.457031 35.273438 C 20.457031 35.023438 20.253906 34.816406 20.007812 34.816406 Z M 20.007812 34.816406 " fill-opacity="1" fill-rule="nonzero"/><path fill="#ffffff" d="M 20.457031 37.558594 C 20.457031 37.304688 20.253906 37.101562 20.007812 37.101562 L 10.117188 37.101562 C 9.871094 37.101562 9.667969 37.304688 9.667969 37.558594 C 9.667969 37.808594 9.871094 38.015625 10.117188 38.015625 L 20.007812 38.015625 C 20.253906 38.015625 20.457031 37.808594 20.457031 37.558594 Z M 20.457031 37.558594 " fill-opacity="1" fill-rule="nonzero"/><path fill="#ffffff" d="M 23.832031 29.132812 L 23.832031 43.953125 C 23.832031 44.203125 23.628906 44.40625 23.378906 44.40625 L 6.746094 44.40625 C 6.496094 44.40625 6.292969 44.203125 6.292969 43.953125 L 6.292969 21.117188 C 6.292969 20.867188 6.496094 20.660156 6.746094 20.660156 L 23.378906 20.660156 C 23.628906 20.660156 23.832031 20.867188 23.832031 21.117188 L 23.832031 22.074219 C 23.941406 22.054688 24.054688 22.03125 24.167969 22.03125 C 24.371094 22.03125 24.550781 22.074219 24.730469 22.144531 L 24.730469 21.117188 C 24.730469 20.363281 24.121094 19.746094 23.378906 19.746094 L 6.746094 19.746094 C 6.003906 19.746094 5.394531 20.363281 5.394531 21.117188 L 5.394531 43.953125 C 5.394531 44.703125 6.003906 45.320312 6.746094 45.320312 L 23.378906 45.320312 C 24.121094 45.320312 24.730469 44.703125 24.730469 43.953125 L 24.730469 29.269531 L 24.167969 28.949219 Z M 23.832031 29.132812 " fill-opacity="1" fill-rule="nonzero"/><path fill="#ffffff" d="M 26.953125 25.089844 C 26.910156 24.929688 26.753906 24.816406 26.59375 24.792969 L 25.203125 24.585938 L 24.570312 23.242188 C 24.503906 23.082031 24.347656 22.964844 24.167969 22.964844 C 23.988281 22.964844 23.832031 23.058594 23.761719 23.242188 L 23.132812 24.585938 L 21.738281 24.792969 C 21.582031 24.816406 21.425781 24.929688 21.378906 25.089844 C 21.335938 25.25 21.355469 25.433594 21.492188 25.546875 L 22.503906 26.621094 L 22.257812 28.128906 C 22.234375 28.308594 22.300781 28.46875 22.4375 28.582031 C 22.570312 28.675781 22.75 28.699219 22.910156 28.605469 L 24.144531 27.898438 L 25.382812 28.605469 C 25.449219 28.652344 25.515625 28.652344 25.605469 28.652344 C 25.695312 28.652344 25.785156 28.628906 25.875 28.5625 C 26.011719 28.46875 26.078125 28.285156 26.054688 28.105469 L 25.808594 26.597656 L 26.820312 25.523438 C 26.976562 25.433594 27 25.25 26.953125 25.089844 Z M 25.023438 26.140625 C 24.933594 26.253906 24.886719 26.390625 24.910156 26.527344 L 25.042969 27.328125 L 24.390625 26.960938 C 24.324219 26.917969 24.257812 26.917969 24.167969 26.917969 C 24.078125 26.917969 24.011719 26.941406 23.941406 26.960938 L 23.289062 27.328125 L 23.425781 26.527344 C 23.449219 26.390625 23.402344 26.230469 23.3125 26.140625 L 22.75 25.546875 L 23.515625 25.433594 C 23.671875 25.410156 23.785156 25.320312 23.851562 25.179688 L 24.167969 24.472656 L 24.480469 25.179688 C 24.550781 25.320312 24.660156 25.410156 24.820312 25.433594 L 25.582031 25.546875 Z M 25.023438 26.140625 " fill-opacity="1" fill-rule="nonzero"/><path fill="#ffffff" d="M 17.289062 39.910156 L 14.230469 41.964844 L 13.398438 40.890625 C 13.242188 40.6875 12.972656 40.664062 12.769531 40.824219 C 12.566406 40.984375 12.542969 41.257812 12.703125 41.460938 L 13.78125 42.878906 C 13.871094 42.992188 14.003906 43.0625 14.140625 43.0625 C 14.230469 43.0625 14.320312 43.039062 14.386719 42.992188 L 17.804688 40.707031 C 18.007812 40.570312 18.074219 40.296875 17.941406 40.070312 C 17.78125 39.839844 17.492188 39.773438 17.289062 39.910156 Z M 17.289062 39.910156 " fill-opacity="1" fill-rule="nonzero"/><path fill="#ffffff" d="M 36 11.652344 C 33.6875 11.652344 31.804688 9.773438 31.804688 7.460938 C 31.804688 5.148438 33.6875 3.265625 36 3.265625 C 38.3125 3.265625 40.195312 5.148438 40.195312 7.460938 C 40.195312 9.773438 38.3125 11.652344 36 11.652344 Z M 36 3.84375 C 34.007812 3.84375 32.382812 5.464844 32.382812 7.460938 C 32.382812 9.453125 34.007812 11.074219 36 11.074219 C 37.992188 11.074219 39.617188 9.453125 39.617188 7.460938 C 39.617188 5.464844 37.992188 3.84375 36 3.84375 Z M 42.363281 2.636719 C 40.664062 0.9375 38.402344 0 36 0 C 33.597656 0 31.335938 0.9375 29.636719 2.636719 C 27.9375 4.335938 27 6.597656 27 9 C 27 11.402344 27.9375 13.664062 29.636719 15.363281 C 31.335938 17.0625 33.597656 18 36 18 C 38.402344 18 40.664062 17.0625 42.363281 15.363281 C 44.0625 13.664062 45 11.402344 45 9 C 45 6.597656 44.0625 4.335938 42.363281 2.636719 Z M 30.042969 3.042969 C 31.636719 1.453125 33.75 0.578125 36 0.578125 C 38.25 0.578125 40.363281 1.453125 41.957031 3.042969 C 43.546875 4.636719 44.421875 6.75 44.421875 9 C 44.421875 10.871094 43.816406 12.648438 42.699219 14.105469 C 41.808594 12.863281 40.386719 12.128906 38.84375 12.128906 L 33.15625 12.128906 C 31.613281 12.128906 30.191406 12.863281 29.300781 14.105469 C 28.183594 12.648438 27.578125 10.871094 27.578125 9 C 27.578125 6.75 28.453125 4.636719 30.042969 3.042969 Z M 36 17.421875 C 33.75 17.421875 31.636719 16.546875 30.042969 14.957031 C 29.917969 14.832031 29.800781 14.703125 29.683594 14.570312 C 30.457031 13.402344 31.75 12.707031 33.15625 12.707031 L 38.84375 12.707031 C 40.25 12.707031 41.542969 13.402344 42.316406 14.570312 C 42.199219 14.703125 42.082031 14.832031 41.957031 14.957031 C 40.363281 16.546875 38.25 17.421875 36 17.421875 Z M 36 17.421875 " fill-opacity="1" fill-rule="nonzero"/><g clip-path="url(#77ff7a31be)"><g clip-path="url(#37dc59f29e)"><g clip-path="url(#a589b6e292)"><path fill="#ffffff" d="M 16.214844 12.597656 L 20.703125 10.933594 C 20.773438 10.90625 20.820312 10.847656 20.835938 10.773438 C 20.839844 10.742188 20.847656 10.65625 20.769531 10.597656 L 19.734375 9.839844 C 19.660156 9.789062 19.648438 9.683594 19.707031 9.605469 C 21.398438 7.289062 23.835938 7.054688 25.140625 7.121094 C 25.140625 7.121094 25.140625 7.113281 25.140625 7.113281 L 24.882812 6.925781 C 22.714844 5.339844 19.570312 5.941406 17.871094 8.265625 C 17.8125 8.339844 17.710938 8.359375 17.636719 8.308594 L 16.601562 7.550781 C 16.523438 7.496094 16.445312 7.527344 16.414062 7.542969 C 16.347656 7.578125 16.308594 7.640625 16.304688 7.714844 L 16.078125 12.496094 C 16.074219 12.546875 16.105469 12.578125 16.117188 12.585938 C 16.132812 12.597656 16.167969 12.617188 16.214844 12.597656 Z M 15.742188 12.503906 L 15.972656 7.71875 C 15.980469 7.519531 16.097656 7.335938 16.273438 7.242188 C 16.453125 7.148438 16.65625 7.160156 16.808594 7.269531 L 17.714844 7.933594 C 19.546875 5.570312 22.820312 4.984375 25.089844 6.644531 L 25.347656 6.832031 C 25.46875 6.921875 25.507812 7.082031 25.449219 7.226562 C 25.4375 7.257812 25.421875 7.289062 25.402344 7.3125 C 25.332031 7.410156 25.222656 7.46875 25.101562 7.460938 C 23.894531 7.398438 21.660156 7.609375 20.074219 9.65625 L 20.972656 10.316406 C 21.125 10.429688 21.199219 10.621094 21.164062 10.816406 C 21.125 11.015625 20.988281 11.179688 20.800781 11.25 L 16.3125 12.917969 C 16.175781 12.96875 16.027344 12.949219 15.914062 12.867188 C 15.800781 12.785156 15.738281 12.648438 15.742188 12.503906 " fill-opacity="1" fill-rule="nonzero"/></g></g></g><g clip-path="url(#30b283b00b)"><g clip-path="url(#f0a3135408)"><g clip-path="url(#7e84b56f61)"><path fill="#ffffff" d="M 37.039062 19.550781 L 32.59375 21.332031 C 32.527344 21.359375 32.480469 21.417969 32.46875 21.492188 C 32.464844 21.527344 32.460938 21.613281 32.539062 21.667969 L 33.59375 22.398438 C 33.667969 22.449219 33.683594 22.554688 33.628906 22.632812 C 31.996094 24.992188 29.5625 25.289062 28.257812 25.257812 C 28.257812 25.257812 28.257812 25.261719 28.257812 25.261719 L 28.519531 25.445312 C 30.726562 26.972656 33.855469 26.292969 35.496094 23.925781 C 35.550781 23.847656 35.65625 23.824219 35.726562 23.875 L 36.78125 24.605469 C 36.863281 24.664062 36.941406 24.628906 36.972656 24.613281 C 37.035156 24.574219 37.074219 24.511719 37.074219 24.4375 L 37.179688 19.652344 C 37.183594 19.597656 37.152344 19.570312 37.136719 19.5625 C 37.125 19.550781 37.085938 19.53125 37.039062 19.550781 Z M 37.515625 19.636719 L 37.410156 24.421875 C 37.402344 24.621094 37.292969 24.808594 37.117188 24.90625 C 36.941406 25.003906 36.738281 25 36.585938 24.894531 L 35.660156 24.253906 C 33.886719 26.664062 30.632812 27.332031 28.324219 25.730469 L 28.058594 25.550781 C 27.9375 25.464844 27.890625 25.304688 27.945312 25.15625 C 27.957031 25.125 27.972656 25.097656 27.988281 25.070312 C 28.058594 24.972656 28.167969 24.914062 28.289062 24.914062 C 29.496094 24.945312 31.726562 24.679688 33.257812 22.589844 L 32.339844 21.953125 C 32.1875 21.847656 32.109375 21.65625 32.140625 21.460938 C 32.171875 21.261719 32.304688 21.089844 32.492188 21.015625 L 36.9375 19.234375 C 37.070312 19.179688 37.222656 19.195312 37.335938 19.277344 C 37.449219 19.355469 37.515625 19.488281 37.515625 19.636719 " fill-opacity="1" fill-rule="nonzero"/></g></g></g></svg>