<svg xmlns="http://www.w3.org/2000/svg" xmlns:xlink="http://www.w3.org/1999/xlink" width="40" zoomAndPan="magnify" viewBox="0 0 30 30.000001" height="40" preserveAspectRatio="xMidYMid meet" version="1.0"><defs><clipPath id="10b5bd92b5"><path d="M 0.484375 0 L 29.515625 0 L 29.515625 29.03125 L 0.484375 29.03125 Z M 0.484375 0 " clip-rule="nonzero"/></clipPath><clipPath id="a34fc1a8f6"><path d="M 15 0 C 6.984375 0 0.484375 6.5 0.484375 14.515625 C 0.484375 22.53125 6.984375 29.03125 15 29.03125 C 23.015625 29.03125 29.515625 22.53125 29.515625 14.515625 C 29.515625 6.5 23.015625 0 15 0 Z M 15 0 " clip-rule="nonzero"/></clipPath><clipPath id="0206eb86cd"><path d="M 15.246094 6.324219 L 24.875 6.324219 L 24.875 23.019531 L 15.246094 23.019531 Z M 15.246094 6.324219 " clip-rule="nonzero"/></clipPath><clipPath id="5512cd5577"><path d="M 5.316406 6.324219 L 14.886719 6.324219 L 14.886719 23.019531 L 5.316406 23.019531 Z M 5.316406 6.324219 " clip-rule="nonzero"/></clipPath></defs><g clip-path="url(#10b5bd92b5)"><g clip-path="url(#a34fc1a8f6)"><path fill="#ff9201" d="M 0.484375 0 L 29.515625 0 L 29.515625 29.03125 L 0.484375 29.03125 Z M 0.484375 0 " fill-opacity="1" fill-rule="nonzero"/></g></g><g clip-path="url(#0206eb86cd)"><path fill="#ffffff" d="M 24.585938 6.320312 L 24.875 6.988281 C 23.484375 7.5625 22.382812 8.164062 21.570312 8.800781 C 20.753906 9.4375 20.058594 10.253906 19.480469 11.25 C 18.582031 12.777344 18.070312 14.261719 17.941406 15.703125 C 18.519531 15.511719 19.023438 15.417969 19.449219 15.417969 C 20.628906 15.417969 21.589844 15.761719 22.339844 16.449219 C 23.085938 17.140625 23.460938 18.035156 23.460938 19.136719 C 23.460938 20.199219 23.085938 21.109375 22.339844 21.871094 C 21.589844 22.636719 20.691406 23.019531 19.644531 23.019531 C 18.359375 23.019531 17.320312 22.507812 16.53125 21.492188 C 15.738281 20.472656 15.34375 19.128906 15.34375 17.453125 C 15.34375 15.796875 15.742188 14.160156 16.546875 12.539062 C 17.347656 10.917969 18.414062 9.585938 19.738281 8.546875 C 21.128906 7.445312 22.746094 6.703125 24.585938 6.320312 " fill-opacity="1" fill-rule="nonzero"/></g><g clip-path="url(#5512cd5577)"><path fill="#ffffff" d="M 14.558594 6.320312 L 14.847656 6.988281 C 13.433594 7.5625 12.328125 8.164062 11.523438 8.800781 C 10.722656 9.4375 10.023438 10.253906 9.421875 11.25 C 8.546875 12.777344 8.03125 14.261719 7.882812 15.703125 C 8.480469 15.511719 8.996094 15.417969 9.421875 15.417969 C 10.597656 15.417969 11.558594 15.761719 12.292969 16.449219 C 13.03125 17.140625 13.402344 18.035156 13.402344 19.136719 C 13.402344 20.199219 13.03125 21.109375 12.292969 21.871094 C 11.558594 22.636719 10.664062 23.019531 9.613281 23.019531 C 8.332031 23.019531 7.292969 22.507812 6.503906 21.492188 C 5.710938 20.472656 5.316406 19.128906 5.316406 17.453125 C 5.316406 15.796875 5.714844 14.160156 6.519531 12.539062 C 7.320312 10.917969 8.382812 9.585938 9.710938 8.546875 C 11.101562 7.445312 12.71875 6.703125 14.558594 6.320312 " fill-opacity="1" fill-rule="nonzero"/></g></svg>