<svg xmlns="http://www.w3.org/2000/svg" xmlns:xlink="http://www.w3.org/1999/xlink" width="91" zoomAndPan="magnify" viewBox="0 0 68.25 53.25" height="71" preserveAspectRatio="xMidYMid meet" version="1.0"><defs><filter x="0%" y="0%" width="100%" height="100%" id="c8430f4075"><feColorMatrix values="0 0 0 0 1 0 0 0 0 1 0 0 0 0 1 0 0 0 1 0" color-interpolation-filters="sRGB"/></filter><clipPath id="6a9b75a4a1"><path d="M 0.105469 0 L 67.40625 0 L 67.40625 52.511719 L 0.105469 52.511719 Z M 0.105469 0 " clip-rule="nonzero"/></clipPath><clipPath id="96797b3b44"><path d="M 16 32 L 67.40625 32 L 67.40625 52.511719 L 16 52.511719 Z M 16 32 " clip-rule="nonzero"/></clipPath><mask id="b2a1e0c27a"><g filter="url(#c8430f4075)"><rect x="-6.825" width="81.9" fill="#000000" y="-5.325" height="63.899999" fill-opacity="0.69"/></g></mask><clipPath id="c2fa5969e7"><path d="M 0.613281 0.695312 L 51.40625 0.695312 L 51.40625 20.511719 L 0.613281 20.511719 Z M 0.613281 0.695312 " clip-rule="nonzero"/></clipPath><clipPath id="197a639a68"><path d="M 26.007812 45.136719 L 51.40625 0.695312 L 0.613281 0.695312 Z M 26.007812 45.136719 " clip-rule="nonzero"/></clipPath><clipPath id="56c0645f2a"><rect x="0" width="52" y="0" height="21"/></clipPath><clipPath id="89d1bd8367"><path d="M 0.105469 32 L 51 32 L 51 52.511719 L 0.105469 52.511719 Z M 0.105469 32 " clip-rule="nonzero"/></clipPath><mask id="710c970363"><g filter="url(#c8430f4075)"><rect x="-6.825" width="81.9" fill="#000000" y="-5.325" height="63.899999" fill-opacity="0.69"/></g></mask><clipPath id="434c59c503"><path d="M 0.105469 0.695312 L 50.898438 0.695312 L 50.898438 20.511719 L 0.105469 20.511719 Z M 0.105469 0.695312 " clip-rule="nonzero"/></clipPath><clipPath id="3af056257f"><path d="M 25.5 45.136719 L 50.898438 0.695312 L 0.105469 0.695312 Z M 25.5 45.136719 " clip-rule="nonzero"/></clipPath><clipPath id="b892ca300e"><rect x="0" width="51" y="0" height="21"/></clipPath><clipPath id="67f885051d"><path d="M 9.382812 0 L 58.128906 0 L 58.128906 52.511719 L 9.382812 52.511719 Z M 9.382812 0 " clip-rule="nonzero"/></clipPath><clipPath id="39ad00b47f"><path d="M 12.339844 0 L 55.171875 0 C 55.957031 0 56.707031 0.3125 57.261719 0.867188 C 57.816406 1.421875 58.128906 2.171875 58.128906 2.957031 L 58.128906 49.550781 C 58.128906 50.335938 57.816406 51.089844 57.261719 51.644531 C 56.707031 52.199219 55.957031 52.511719 55.171875 52.511719 L 12.339844 52.511719 C 11.554688 52.511719 10.800781 52.199219 10.246094 51.644531 C 9.691406 51.089844 9.382812 50.335938 9.382812 49.550781 L 9.382812 2.957031 C 9.382812 2.171875 9.691406 1.421875 10.246094 0.867188 C 10.800781 0.3125 11.554688 0 12.339844 0 Z M 12.339844 0 " clip-rule="nonzero"/></clipPath><clipPath id="f2c69e9f73"><path d="M 15.441406 12.058594 L 52.421875 12.058594 L 52.421875 40.164062 L 15.441406 40.164062 Z M 15.441406 12.058594 " clip-rule="nonzero"/></clipPath></defs><g clip-path="url(#6a9b75a4a1)"><path fill="#ffffff" d="M 0.105469 0 L 67.40625 0 L 67.40625 52.511719 L 0.105469 52.511719 Z M 0.105469 0 " fill-opacity="1" fill-rule="nonzero"/><path fill="#ffffff" d="M 0.105469 0 L 67.40625 0 L 67.40625 52.511719 L 0.105469 52.511719 Z M 0.105469 0 " fill-opacity="1" fill-rule="nonzero"/></g><g clip-path="url(#96797b3b44)"><g mask="url(#b2a1e0c27a)"><g transform="matrix(1, 0, 0, 1, 16, 32)"><g clip-path="url(#56c0645f2a)"><g clip-path="url(#c2fa5969e7)"><g clip-path="url(#197a639a68)"><path fill="#ff9201" d="M 0.613281 0.695312 L 51.40625 0.695312 L 51.40625 45.136719 L 0.613281 45.136719 Z M 0.613281 0.695312 " fill-opacity="1" fill-rule="nonzero"/></g></g></g></g></g></g><g clip-path="url(#89d1bd8367)"><g mask="url(#710c970363)"><g transform="matrix(1, 0, 0, 1, 0.000000000000000028, 32)"><g clip-path="url(#b892ca300e)"><g clip-path="url(#434c59c503)"><g clip-path="url(#3af056257f)"><path fill="#ff9201" d="M 0.105469 0.695312 L 50.898438 0.695312 L 50.898438 45.136719 L 0.105469 45.136719 Z M 0.105469 0.695312 " fill-opacity="1" fill-rule="nonzero"/></g></g></g></g></g></g><g clip-path="url(#67f885051d)"><g clip-path="url(#39ad00b47f)"><path fill="#ff9201" d="M 9.382812 0 L 58.128906 0 L 58.128906 52.511719 L 9.382812 52.511719 Z M 9.382812 0 " fill-opacity="1" fill-rule="nonzero"/></g></g><path fill="#ffffff" d="M 22.511719 26.125 C 22.511719 26.289062 22.457031 26.425781 22.339844 26.539062 C 22.226562 26.652344 22.089844 26.710938 21.925781 26.710938 C 21.761719 26.710938 21.625 26.652344 21.511719 26.539062 C 21.394531 26.425781 21.339844 26.289062 21.339844 26.125 C 21.339844 25.964844 21.394531 25.828125 21.511719 25.714844 C 21.625 25.597656 21.761719 25.542969 21.925781 25.542969 C 22.089844 25.542969 22.226562 25.597656 22.339844 25.714844 C 22.457031 25.828125 22.511719 25.964844 22.511719 26.125 Z M 22.511719 26.125 " fill-opacity="1" fill-rule="nonzero"/><g clip-path="url(#f2c69e9f73)"><path fill="#ffffff" d="M 52.234375 24.335938 C 52.144531 24.203125 52.019531 24.121094 51.863281 24.09375 C 51.707031 24.0625 51.5625 24.09375 51.433594 24.1875 L 47.910156 26.660156 L 43.617188 19.046875 L 52.0625 13.78125 C 52.199219 13.695312 52.285156 13.574219 52.320312 13.417969 C 52.359375 13.261719 52.335938 13.113281 52.25 12.976562 C 52.167969 12.839844 52.046875 12.75 51.894531 12.714844 C 51.738281 12.675781 51.59375 12.699219 51.457031 12.785156 L 42.65625 18.273438 C 42.617188 18.285156 42.582031 18.300781 42.546875 18.320312 C 42.503906 18.347656 42.464844 18.378906 42.429688 18.414062 L 39.636719 20.15625 L 34.21875 19.226562 C 33.023438 18.976562 31.875 19.113281 30.773438 19.644531 C 30.730469 19.609375 30.683594 19.585938 30.636719 19.566406 L 28.222656 18.71875 C 28.171875 18.664062 28.113281 18.621094 28.046875 18.589844 C 26.324219 17.78125 24.324219 16.617188 22.394531 15.488281 C 20.3125 14.277344 18.160156 13.023438 16.285156 12.167969 C 16.140625 12.101562 15.992188 12.09375 15.84375 12.152344 C 15.695312 12.210938 15.585938 12.3125 15.523438 12.457031 C 15.457031 12.605469 15.453125 12.753906 15.507812 12.90625 C 15.566406 13.054688 15.664062 13.164062 15.8125 13.230469 C 17.636719 14.066406 19.761719 15.304688 21.820312 16.503906 C 22.433594 16.859375 23.054688 17.222656 23.671875 17.574219 L 19.164062 26.53125 C 18.21875 26.203125 17.25 25.851562 16.269531 25.441406 C 16.121094 25.378906 15.976562 25.378906 15.828125 25.441406 C 15.679688 25.5 15.574219 25.605469 15.515625 25.753906 C 15.453125 25.90625 15.453125 26.054688 15.515625 26.203125 C 15.574219 26.351562 15.679688 26.457031 15.828125 26.519531 C 17.046875 27.03125 18.238281 27.445312 19.386719 27.847656 C 20.414062 28.203125 21.46875 28.574219 22.539062 29.007812 L 25.4375 31.054688 L 24.765625 32.019531 C 24.617188 32.234375 24.515625 32.46875 24.457031 32.71875 C 24.398438 32.972656 24.386719 33.230469 24.421875 33.488281 C 24.457031 33.746094 24.539062 33.984375 24.664062 34.210938 C 24.792969 34.4375 24.957031 34.632812 25.15625 34.796875 L 25.417969 35.003906 C 25.75 35.269531 26.132812 35.40625 26.554688 35.40625 C 26.648438 35.40625 26.738281 35.398438 26.832031 35.382812 C 26.863281 35.378906 26.894531 35.371094 26.925781 35.367188 C 27.015625 35.855469 27.253906 36.253906 27.636719 36.558594 L 27.988281 36.839844 C 28.324219 37.105469 28.703125 37.238281 29.128906 37.238281 C 29.214844 37.238281 29.300781 37.234375 29.386719 37.222656 C 29.457031 37.757812 29.703125 38.191406 30.121094 38.527344 C 30.453125 38.792969 30.835938 38.925781 31.261719 38.925781 C 31.570312 38.925781 31.859375 38.855469 32.132812 38.707031 C 32.261719 39.03125 32.460938 39.300781 32.730469 39.515625 L 33.007812 39.734375 C 33.34375 40.003906 33.722656 40.136719 34.148438 40.136719 C 34.800781 40.136719 35.316406 39.867188 35.691406 39.320312 L 36.277344 38.480469 L 36.523438 38.652344 C 36.71875 38.792969 36.933594 38.886719 37.167969 38.933594 C 37.402344 38.980469 37.636719 38.980469 37.871094 38.933594 C 38.105469 38.882812 38.320312 38.789062 38.515625 38.648438 C 38.710938 38.511719 38.871094 38.339844 38.996094 38.132812 C 39.132812 37.914062 39.21875 37.675781 39.253906 37.417969 L 39.90625 37.855469 C 40.101562 37.996094 40.316406 38.089844 40.550781 38.136719 C 40.785156 38.183594 41.019531 38.183594 41.253906 38.136719 C 41.484375 38.085938 41.699219 37.992188 41.898438 37.855469 C 42.09375 37.714844 42.253906 37.542969 42.378906 37.335938 C 42.515625 37.117188 42.605469 36.878906 42.648438 36.621094 L 42.667969 36.636719 C 42.863281 36.773438 43.078125 36.867188 43.3125 36.917969 C 43.546875 36.964844 43.78125 36.964844 44.015625 36.914062 C 44.25 36.867188 44.464844 36.773438 44.660156 36.632812 C 44.855469 36.496094 45.015625 36.320312 45.140625 36.117188 C 45.261719 35.917969 45.34375 35.699219 45.386719 35.46875 C 45.429688 35.238281 45.433594 35.007812 45.390625 34.777344 C 45.347656 34.546875 45.265625 34.332031 45.144531 34.128906 C 45.027344 33.929688 44.875 33.757812 44.6875 33.613281 C 44.871094 33.480469 45.019531 33.316406 45.140625 33.121094 C 45.261719 32.925781 45.34375 32.710938 45.386719 32.484375 C 45.429688 32.253906 45.433594 32.027344 45.390625 31.796875 C 45.351562 31.566406 45.273438 31.351562 45.15625 31.152344 C 45.039062 30.953125 44.890625 30.78125 44.710938 30.636719 L 45.203125 29.976562 L 52.085938 25.148438 C 52.21875 25.054688 52.296875 24.929688 52.328125 24.769531 C 52.355469 24.613281 52.324219 24.46875 52.234375 24.335938 Z M 46.941406 27.292969 C 46.945312 27.304688 46.957031 27.3125 46.964844 27.324219 L 45.046875 28.667969 L 40.613281 20.917969 L 42.636719 19.65625 Z M 33.976562 20.371094 C 33.988281 20.371094 34 20.375 34.011719 20.375 L 39.511719 21.316406 L 44.15625 29.441406 L 43.734375 30.007812 L 35.367188 24.441406 C 34.550781 23.816406 33.796875 23.558594 33.136719 23.679688 C 32.726562 23.75 32.394531 23.953125 32.140625 24.289062 L 30.609375 26.234375 C 29.976562 26.90625 29.402344 27.246094 28.945312 27.210938 C 28.59375 27.152344 28.328125 26.96875 28.148438 26.652344 C 28.421875 26.171875 28.640625 25.664062 28.804688 25.132812 L 29.695312 22.378906 C 30.902344 19.703125 33.855469 20.339844 33.976562 20.371094 Z M 26.855469 19.308594 L 22.535156 27.75 C 21.765625 27.445312 21.007812 27.175781 20.265625 26.917969 L 24.679688 18.144531 C 25.425781 18.5625 26.15625 18.957031 26.855469 19.308594 Z M 26.664062 34.230469 C 26.464844 34.257812 26.285156 34.210938 26.125 34.082031 L 25.863281 33.875 C 25.691406 33.730469 25.589844 33.542969 25.558594 33.316406 C 25.53125 33.089844 25.578125 32.882812 25.707031 32.695312 L 27.617188 29.953125 C 27.738281 29.773438 27.902344 29.667969 28.113281 29.636719 C 28.3125 29.605469 28.492188 29.65625 28.652344 29.78125 L 28.910156 29.988281 C 29.085938 30.136719 29.1875 30.324219 29.214844 30.550781 C 29.246094 30.773438 29.199219 30.984375 29.070312 31.171875 L 27.25 33.785156 L 27.246094 33.785156 L 27.15625 33.914062 C 27.039062 34.09375 26.871094 34.195312 26.664062 34.230469 Z M 28.699219 35.917969 L 28.347656 35.640625 C 28.175781 35.492188 28.074219 35.308594 28.042969 35.082031 C 28.011719 34.855469 28.0625 34.648438 28.1875 34.457031 L 30.011719 31.84375 L 30.101562 31.714844 C 30.222656 31.539062 30.386719 31.433594 30.597656 31.398438 C 30.796875 31.371094 30.976562 31.417969 31.132812 31.546875 L 31.484375 31.824219 C 31.65625 31.972656 31.757812 32.15625 31.789062 32.382812 C 31.820312 32.609375 31.769531 32.820312 31.640625 33.007812 L 29.730469 35.75 C 29.609375 35.925781 29.445312 36.03125 29.234375 36.066406 C 29.035156 36.09375 28.855469 36.046875 28.699219 35.917969 Z M 31.367188 37.75 C 31.167969 37.78125 30.988281 37.734375 30.828125 37.605469 C 30.65625 37.457031 30.554688 37.273438 30.523438 37.046875 C 30.492188 36.820312 30.542969 36.613281 30.671875 36.421875 L 32.582031 33.679688 C 32.703125 33.503906 32.867188 33.398438 33.078125 33.363281 C 33.113281 33.359375 33.148438 33.359375 33.179688 33.359375 C 33.34375 33.359375 33.488281 33.410156 33.613281 33.511719 C 33.78125 33.652344 33.882812 33.832031 33.914062 34.050781 C 33.949219 34.269531 33.910156 34.46875 33.792969 34.65625 L 32.339844 36.742188 C 32.324219 36.765625 32.3125 36.789062 32.296875 36.8125 L 31.863281 37.4375 C 31.742188 37.613281 31.578125 37.71875 31.367188 37.75 Z M 34.75 38.648438 C 34.628906 38.824219 34.464844 38.929688 34.253906 38.960938 C 34.054688 38.992188 33.875 38.941406 33.71875 38.816406 L 33.441406 38.597656 C 33.273438 38.453125 33.171875 38.277344 33.140625 38.058594 C 33.105469 37.839844 33.144531 37.636719 33.261719 37.453125 L 34.714844 35.367188 C 34.730469 35.34375 34.746094 35.320312 34.757812 35.296875 L 34.875 35.128906 C 34.996094 34.953125 35.160156 34.847656 35.367188 34.816406 C 35.402344 34.8125 35.4375 34.808594 35.472656 34.808594 C 35.632812 34.808594 35.777344 34.859375 35.90625 34.960938 L 36.183594 35.179688 C 36.355469 35.328125 36.457031 35.515625 36.488281 35.742188 C 36.519531 35.96875 36.46875 36.175781 36.339844 36.363281 Z M 38.023438 37.511719 C 37.933594 37.660156 37.800781 37.753906 37.632812 37.789062 C 37.46875 37.824219 37.316406 37.792969 37.175781 37.691406 L 36.941406 37.527344 L 37.28125 37.039062 C 37.421875 36.835938 37.523438 36.613281 37.582031 36.375 L 37.832031 36.546875 C 37.980469 36.65625 38.074219 36.804688 38.113281 36.992188 C 38.148438 37.175781 38.117188 37.351562 38.023438 37.511719 Z M 44.164062 35.496094 C 44.074219 35.644531 43.945312 35.738281 43.777344 35.773438 C 43.613281 35.808594 43.460938 35.773438 43.320312 35.675781 L 42.074219 34.800781 C 42.027344 34.761719 41.980469 34.71875 41.925781 34.683594 C 41.894531 34.660156 41.859375 34.640625 41.824219 34.625 L 36.15625 30.660156 C 36.027344 30.566406 35.882812 30.535156 35.726562 30.566406 C 35.570312 30.59375 35.445312 30.675781 35.355469 30.808594 C 35.265625 30.941406 35.234375 31.085938 35.261719 31.246094 C 35.292969 31.402344 35.371094 31.527344 35.503906 31.621094 L 41.335938 35.703125 C 41.449219 35.847656 41.511719 36.015625 41.527344 36.199219 C 41.539062 36.382812 41.496094 36.554688 41.402344 36.714844 C 41.316406 36.867188 41.1875 36.957031 41.015625 36.992188 C 40.847656 37.027344 40.691406 36.992188 40.550781 36.890625 L 37.285156 34.679688 C 37.175781 34.519531 37.042969 34.382812 36.890625 34.261719 L 36.613281 34.042969 C 36.199219 33.707031 35.726562 33.582031 35.199219 33.660156 C 35.140625 33.667969 35.078125 33.683594 35.019531 33.699219 C 34.914062 33.246094 34.683594 32.878906 34.324219 32.589844 C 33.914062 32.261719 33.445312 32.132812 32.925781 32.207031 C 32.855469 31.671875 32.609375 31.238281 32.195312 30.902344 L 31.84375 30.625 C 31.425781 30.292969 30.953125 30.164062 30.429688 30.246094 C 30.394531 30.25 30.367188 30.257812 30.335938 30.265625 C 30.242188 29.777344 30.003906 29.378906 29.621094 29.070312 L 29.359375 28.863281 C 28.941406 28.527344 28.472656 28.402344 27.945312 28.480469 C 27.410156 28.5625 26.988281 28.828125 26.679688 29.277344 L 26.105469 30.101562 L 23.613281 28.34375 C 23.597656 28.316406 23.585938 28.292969 23.566406 28.269531 L 27.882812 19.835938 L 29.640625 20.453125 C 29.210938 20.878906 28.875 21.371094 28.632812 21.929688 C 28.625 21.949219 28.617188 21.96875 28.609375 21.988281 L 27.707031 24.785156 C 27.570312 25.226562 27.386719 25.648438 27.160156 26.050781 C 27.042969 26.246094 26.988281 26.457031 26.992188 26.6875 C 27 26.917969 27.066406 27.128906 27.191406 27.316406 C 27.582031 27.941406 28.136719 28.292969 28.859375 28.375 C 29.6875 28.4375 30.5625 27.984375 31.460938 27.019531 C 31.472656 27.007812 31.484375 26.996094 31.496094 26.984375 L 33.050781 25.003906 C 33.066406 24.988281 33.078125 24.96875 33.089844 24.953125 C 33.160156 24.886719 33.242188 24.84375 33.339844 24.828125 C 33.527344 24.792969 33.957031 24.820312 34.6875 25.382812 C 34.699219 25.390625 34.710938 25.398438 34.71875 25.40625 L 43.554688 31.285156 C 43.605469 31.316406 43.660156 31.34375 43.71875 31.359375 L 43.976562 31.535156 C 44.125 31.644531 44.21875 31.792969 44.257812 31.980469 C 44.292969 32.164062 44.261719 32.339844 44.164062 32.5 C 44.074219 32.648438 43.945312 32.742188 43.777344 32.777344 C 43.671875 32.800781 43.570312 32.792969 43.46875 32.753906 L 37.839844 28.8125 L 37.832031 28.808594 C 37.8125 28.792969 37.792969 28.785156 37.773438 28.773438 C 37.757812 28.765625 37.746094 28.757812 37.730469 28.75 C 37.699219 28.738281 37.664062 28.726562 37.632812 28.71875 C 37.628906 28.71875 37.625 28.714844 37.621094 28.714844 C 37.550781 28.699219 37.480469 28.699219 37.40625 28.710938 L 37.402344 28.710938 C 37.375 28.71875 37.34375 28.726562 37.316406 28.734375 C 37.308594 28.738281 37.300781 28.738281 37.296875 28.742188 C 37.273438 28.753906 37.253906 28.761719 37.234375 28.773438 C 37.21875 28.78125 37.207031 28.785156 37.195312 28.792969 C 37.179688 28.804688 37.167969 28.816406 37.152344 28.828125 C 37.136719 28.839844 37.121094 28.851562 37.105469 28.863281 C 37.09375 28.875 37.085938 28.886719 37.078125 28.898438 C 37.058594 28.917969 37.046875 28.933594 37.03125 28.953125 C 37.019531 28.96875 37.015625 28.984375 37.007812 28.996094 C 36.996094 29.015625 36.984375 29.035156 36.972656 29.058594 C 36.96875 29.074219 36.964844 29.089844 36.960938 29.105469 C 36.953125 29.125 36.945312 29.144531 36.941406 29.167969 C 36.9375 29.183594 36.9375 29.203125 36.933594 29.21875 C 36.929688 29.238281 36.929688 29.257812 36.925781 29.28125 C 36.925781 29.296875 36.929688 29.3125 36.933594 29.332031 C 36.933594 29.351562 36.933594 29.371094 36.9375 29.390625 C 36.941406 29.40625 36.945312 29.421875 36.949219 29.4375 C 36.953125 29.460938 36.960938 29.480469 36.96875 29.5 C 36.972656 29.515625 36.980469 29.527344 36.988281 29.542969 C 36.996094 29.5625 37.007812 29.582031 37.015625 29.601562 C 37.027344 29.613281 37.035156 29.625 37.046875 29.636719 C 37.058594 29.65625 37.074219 29.671875 37.085938 29.691406 C 37.097656 29.703125 37.113281 29.710938 37.125 29.722656 C 37.140625 29.738281 37.15625 29.753906 37.175781 29.765625 L 42.667969 33.640625 C 42.746094 33.695312 42.828125 33.742188 42.914062 33.785156 L 43.976562 34.527344 C 44.128906 34.640625 44.222656 34.789062 44.257812 34.972656 C 44.296875 35.160156 44.265625 35.332031 44.164062 35.496094 Z M 44.164062 35.496094 " fill-opacity="1" fill-rule="nonzero"/></g><path fill="#ffffff" d="M 46 27.003906 C 46 27.164062 45.945312 27.300781 45.832031 27.414062 C 45.71875 27.527344 45.582031 27.585938 45.425781 27.585938 C 45.265625 27.585938 45.128906 27.527344 45.015625 27.414062 C 44.902344 27.300781 44.847656 27.164062 44.847656 27.003906 C 44.847656 26.839844 44.902344 26.703125 45.015625 26.589844 C 45.128906 26.476562 45.265625 26.417969 45.425781 26.417969 C 45.582031 26.417969 45.71875 26.476562 45.832031 26.589844 C 45.945312 26.703125 46 26.839844 46 27.003906 Z M 46 27.003906 " fill-opacity="1" fill-rule="nonzero"/></svg>