<svg xmlns="http://www.w3.org/2000/svg" xmlns:xlink="http://www.w3.org/1999/xlink" width="91" zoomAndPan="magnify" viewBox="0 0 68.25 53.25" height="71" preserveAspectRatio="xMidYMid meet" version="1.0"><defs><filter x="0%" y="0%" width="100%" height="100%" id="64034f464e"><feColorMatrix values="0 0 0 0 1 0 0 0 0 1 0 0 0 0 1 0 0 0 1 0" color-interpolation-filters="sRGB"/></filter><clipPath id="d44760a77f"><path d="M 0.105469 0 L 67.40625 0 L 67.40625 52.511719 L 0.105469 52.511719 Z M 0.105469 0 " clip-rule="nonzero"/></clipPath><clipPath id="b7afa31041"><path d="M 16 32 L 67.40625 32 L 67.40625 52.511719 L 16 52.511719 Z M 16 32 " clip-rule="nonzero"/></clipPath><mask id="5b3a9ab78d"><g filter="url(#64034f464e)"><rect x="-6.825" width="81.9" fill="#000000" y="-5.325" height="63.899999" fill-opacity="0.69"/></g></mask><clipPath id="1699e9ea3b"><path d="M 0.613281 0.695312 L 51.40625 0.695312 L 51.40625 20.511719 L 0.613281 20.511719 Z M 0.613281 0.695312 " clip-rule="nonzero"/></clipPath><clipPath id="371f6e3838"><path d="M 26.007812 45.136719 L 51.40625 0.695312 L 0.613281 0.695312 Z M 26.007812 45.136719 " clip-rule="nonzero"/></clipPath><clipPath id="85c8214970"><rect x="0" width="52" y="0" height="21"/></clipPath><clipPath id="86df7b1a9c"><path d="M 0.105469 32 L 51 32 L 51 52.511719 L 0.105469 52.511719 Z M 0.105469 32 " clip-rule="nonzero"/></clipPath><mask id="c8e4836a4d"><g filter="url(#64034f464e)"><rect x="-6.825" width="81.9" fill="#000000" y="-5.325" height="63.899999" fill-opacity="0.69"/></g></mask><clipPath id="3659f06acf"><path d="M 0.105469 0.695312 L 50.898438 0.695312 L 50.898438 20.511719 L 0.105469 20.511719 Z M 0.105469 0.695312 " clip-rule="nonzero"/></clipPath><clipPath id="b4a6220bd4"><path d="M 25.5 45.136719 L 50.898438 0.695312 L 0.105469 0.695312 Z M 25.5 45.136719 " clip-rule="nonzero"/></clipPath><clipPath id="6fb870b69a"><rect x="0" width="51" y="0" height="21"/></clipPath><clipPath id="5be99cd3ca"><path d="M 9.382812 0 L 58.128906 0 L 58.128906 52.511719 L 9.382812 52.511719 Z M 9.382812 0 " clip-rule="nonzero"/></clipPath><clipPath id="7fa9fbdeb6"><path d="M 12.339844 0 L 55.171875 0 C 55.957031 0 56.707031 0.3125 57.261719 0.867188 C 57.816406 1.421875 58.128906 2.171875 58.128906 2.957031 L 58.128906 49.550781 C 58.128906 50.335938 57.816406 51.089844 57.261719 51.644531 C 56.707031 52.199219 55.957031 52.511719 55.171875 52.511719 L 12.339844 52.511719 C 11.554688 52.511719 10.800781 52.199219 10.246094 51.644531 C 9.691406 51.089844 9.382812 50.335938 9.382812 49.550781 L 9.382812 2.957031 C 9.382812 2.171875 9.691406 1.421875 10.246094 0.867188 C 10.800781 0.3125 11.554688 0 12.339844 0 Z M 12.339844 0 " clip-rule="nonzero"/></clipPath><clipPath id="d43492c812"><path d="M 18.445312 10.945312 L 48.769531 10.945312 L 48.769531 41.269531 L 18.445312 41.269531 Z M 18.445312 10.945312 " clip-rule="nonzero"/></clipPath></defs><g clip-path="url(#d44760a77f)"><path fill="#ffffff" d="M 0.105469 0 L 67.40625 0 L 67.40625 52.511719 L 0.105469 52.511719 Z M 0.105469 0 " fill-opacity="1" fill-rule="nonzero"/><path fill="#ffffff" d="M 0.105469 0 L 67.40625 0 L 67.40625 52.511719 L 0.105469 52.511719 Z M 0.105469 0 " fill-opacity="1" fill-rule="nonzero"/></g><g clip-path="url(#b7afa31041)"><g mask="url(#5b3a9ab78d)"><g transform="matrix(1, 0, 0, 1, 16, 32)"><g clip-path="url(#85c8214970)"><g clip-path="url(#1699e9ea3b)"><g clip-path="url(#371f6e3838)"><path fill="#ff9201" d="M 0.613281 0.695312 L 51.40625 0.695312 L 51.40625 45.136719 L 0.613281 45.136719 Z M 0.613281 0.695312 " fill-opacity="1" fill-rule="nonzero"/></g></g></g></g></g></g><g clip-path="url(#86df7b1a9c)"><g mask="url(#c8e4836a4d)"><g transform="matrix(1, 0, 0, 1, 0.000000000000000028, 32)"><g clip-path="url(#6fb870b69a)"><g clip-path="url(#3659f06acf)"><g clip-path="url(#b4a6220bd4)"><path fill="#ff9201" d="M 0.105469 0.695312 L 50.898438 0.695312 L 50.898438 45.136719 L 0.105469 45.136719 Z M 0.105469 0.695312 " fill-opacity="1" fill-rule="nonzero"/></g></g></g></g></g></g><g clip-path="url(#5be99cd3ca)"><g clip-path="url(#7fa9fbdeb6)"><path fill="#ff9201" d="M 9.382812 0 L 58.128906 0 L 58.128906 52.511719 L 9.382812 52.511719 Z M 9.382812 0 " fill-opacity="1" fill-rule="nonzero"/></g></g><g clip-path="url(#d43492c812)"><path fill="#ffffff" d="M 48.046875 10.945312 L 19.167969 10.945312 C 18.96875 10.945312 18.796875 11.015625 18.65625 11.15625 C 18.515625 11.296875 18.445312 11.46875 18.445312 11.667969 L 18.445312 14.554688 C 18.445312 14.753906 18.515625 14.925781 18.65625 15.066406 C 18.796875 15.207031 18.96875 15.277344 19.167969 15.277344 L 19.890625 15.277344 L 19.890625 31.882812 C 19.890625 32.082031 19.960938 32.253906 20.101562 32.394531 C 20.242188 32.535156 20.414062 32.605469 20.613281 32.605469 L 32.886719 32.605469 L 32.886719 35.59375 C 32.660156 35.652344 32.445312 35.738281 32.238281 35.847656 C 32.035156 35.957031 31.84375 36.089844 31.671875 36.246094 C 31.5 36.402344 31.347656 36.578125 31.21875 36.769531 C 31.085938 36.964844 30.980469 37.167969 30.898438 37.386719 C 30.820312 37.605469 30.765625 37.832031 30.738281 38.0625 C 30.710938 38.292969 30.714844 38.523438 30.742188 38.753906 C 30.773438 38.988281 30.828125 39.210938 30.910156 39.429688 C 30.996094 39.644531 31.105469 39.851562 31.238281 40.039062 C 31.371094 40.230469 31.523438 40.40625 31.699219 40.558594 C 31.871094 40.710938 32.0625 40.84375 32.269531 40.953125 C 32.476562 41.058594 32.691406 41.140625 32.917969 41.195312 C 33.144531 41.25 33.375 41.28125 33.605469 41.28125 C 33.839844 41.28125 34.070312 41.25 34.296875 41.195312 C 34.523438 41.140625 34.738281 41.058594 34.945312 40.953125 C 35.152344 40.84375 35.339844 40.710938 35.515625 40.558594 C 35.691406 40.40625 35.84375 40.230469 35.976562 40.039062 C 36.109375 39.851562 36.21875 39.644531 36.304688 39.429688 C 36.386719 39.210938 36.441406 38.988281 36.472656 38.753906 C 36.5 38.523438 36.503906 38.292969 36.476562 38.0625 C 36.449219 37.832031 36.394531 37.605469 36.316406 37.386719 C 36.234375 37.167969 36.128906 36.964844 35.996094 36.769531 C 35.867188 36.578125 35.714844 36.402344 35.542969 36.246094 C 35.371094 36.089844 35.179688 35.957031 34.976562 35.847656 C 34.769531 35.738281 34.554688 35.652344 34.328125 35.59375 L 34.328125 32.605469 L 46.601562 32.605469 C 46.800781 32.605469 46.972656 32.535156 47.113281 32.394531 C 47.253906 32.253906 47.324219 32.082031 47.324219 31.882812 L 47.324219 15.277344 L 48.046875 15.277344 C 48.246094 15.277344 48.417969 15.207031 48.558594 15.066406 C 48.699219 14.925781 48.769531 14.753906 48.769531 14.554688 L 48.769531 11.667969 C 48.769531 11.46875 48.699219 11.296875 48.558594 11.15625 C 48.417969 11.015625 48.246094 10.945312 48.046875 10.945312 Z M 35.050781 38.378906 C 35.050781 38.574219 35.015625 38.757812 34.941406 38.933594 C 34.867188 39.109375 34.765625 39.265625 34.628906 39.402344 C 34.492188 39.539062 34.335938 39.640625 34.160156 39.714844 C 33.984375 39.789062 33.796875 39.824219 33.605469 39.824219 C 33.414062 39.824219 33.230469 39.789062 33.054688 39.714844 C 32.878906 39.640625 32.722656 39.539062 32.585938 39.402344 C 32.449219 39.265625 32.347656 39.109375 32.273438 38.933594 C 32.199219 38.757812 32.164062 38.574219 32.164062 38.378906 C 32.164062 38.1875 32.199219 38.003906 32.273438 37.828125 C 32.347656 37.652344 32.449219 37.496094 32.585938 37.359375 C 32.722656 37.222656 32.878906 37.121094 33.054688 37.046875 C 33.230469 36.972656 33.414062 36.9375 33.605469 36.9375 C 33.796875 36.9375 33.984375 36.972656 34.160156 37.046875 C 34.335938 37.121094 34.492188 37.222656 34.628906 37.359375 C 34.765625 37.496094 34.867188 37.652344 34.941406 37.828125 C 35.015625 38.003906 35.050781 38.1875 35.050781 38.378906 Z M 45.878906 31.160156 L 21.332031 31.160156 L 21.332031 15.277344 L 45.878906 15.277344 Z M 47.324219 13.832031 L 19.890625 13.832031 L 19.890625 12.390625 L 47.324219 12.390625 Z M 47.324219 13.832031 " fill-opacity="1" fill-rule="nonzero"/></g><path fill="#ffffff" d="M 35.050781 26.828125 L 32.886719 26.828125 L 32.886719 17.445312 L 31.441406 17.445312 L 31.441406 26.828125 L 29.996094 26.828125 L 29.996094 19.464844 L 28.554688 19.464844 L 28.554688 26.828125 L 27.109375 26.828125 L 27.109375 21.488281 L 25.664062 21.488281 L 25.664062 26.828125 L 23.5 26.828125 L 23.5 28.273438 L 35.050781 28.273438 Z M 35.050781 26.828125 " fill-opacity="1" fill-rule="nonzero"/><path fill="#ffffff" d="M 37.9375 18.164062 L 43.714844 18.164062 L 43.714844 19.609375 L 37.9375 19.609375 Z M 37.9375 18.164062 " fill-opacity="1" fill-rule="nonzero"/><path fill="#ffffff" d="M 37.9375 21.054688 L 43.714844 21.054688 L 43.714844 22.496094 L 37.9375 22.496094 Z M 37.9375 21.054688 " fill-opacity="1" fill-rule="nonzero"/><path fill="#ffffff" d="M 37.9375 23.941406 L 43.714844 23.941406 L 43.714844 25.386719 L 37.9375 25.386719 Z M 37.9375 23.941406 " fill-opacity="1" fill-rule="nonzero"/><path fill="#ffffff" d="M 37.9375 26.828125 L 43.714844 26.828125 L 43.714844 28.273438 L 37.9375 28.273438 Z M 37.9375 26.828125 " fill-opacity="1" fill-rule="nonzero"/></svg>