<svg xmlns="http://www.w3.org/2000/svg" xmlns:xlink="http://www.w3.org/1999/xlink" width="91" zoomAndPan="magnify" viewBox="0 0 68.25 53.25" height="71" preserveAspectRatio="xMidYMid meet" version="1.0"><defs><filter x="0%" y="0%" width="100%" height="100%" id="feea03ec12"><feColorMatrix values="0 0 0 0 1 0 0 0 0 1 0 0 0 0 1 0 0 0 1 0" color-interpolation-filters="sRGB"/></filter><clipPath id="5aabc86184"><path d="M 0.105469 0 L 67.40625 0 L 67.40625 52.511719 L 0.105469 52.511719 Z M 0.105469 0 " clip-rule="nonzero"/></clipPath><clipPath id="4b50b22e0d"><path d="M 16 32 L 67.40625 32 L 67.40625 52.511719 L 16 52.511719 Z M 16 32 " clip-rule="nonzero"/></clipPath><mask id="af28236338"><g filter="url(#feea03ec12)"><rect x="-6.825" width="81.9" fill="#000000" y="-5.325" height="63.899999" fill-opacity="0.69"/></g></mask><clipPath id="e9fd33975a"><path d="M 0.613281 0.695312 L 51.40625 0.695312 L 51.40625 20.511719 L 0.613281 20.511719 Z M 0.613281 0.695312 " clip-rule="nonzero"/></clipPath><clipPath id="7ce350d625"><path d="M 26.007812 45.136719 L 51.40625 0.695312 L 0.613281 0.695312 Z M 26.007812 45.136719 " clip-rule="nonzero"/></clipPath><clipPath id="b7f07e07be"><rect x="0" width="52" y="0" height="21"/></clipPath><clipPath id="66e9f52c5a"><path d="M 0.105469 32 L 51 32 L 51 52.511719 L 0.105469 52.511719 Z M 0.105469 32 " clip-rule="nonzero"/></clipPath><mask id="4af7e4b1eb"><g filter="url(#feea03ec12)"><rect x="-6.825" width="81.9" fill="#000000" y="-5.325" height="63.899999" fill-opacity="0.69"/></g></mask><clipPath id="8a3892f490"><path d="M 0.105469 0.695312 L 50.898438 0.695312 L 50.898438 20.511719 L 0.105469 20.511719 Z M 0.105469 0.695312 " clip-rule="nonzero"/></clipPath><clipPath id="5d785982ef"><path d="M 25.5 45.136719 L 50.898438 0.695312 L 0.105469 0.695312 Z M 25.5 45.136719 " clip-rule="nonzero"/></clipPath><clipPath id="d61b0fbfb6"><rect x="0" width="51" y="0" height="21"/></clipPath><clipPath id="6474fdf655"><path d="M 9.382812 0 L 58.128906 0 L 58.128906 52.511719 L 9.382812 52.511719 Z M 9.382812 0 " clip-rule="nonzero"/></clipPath><clipPath id="510ba14f35"><path d="M 12.339844 0 L 55.171875 0 C 55.957031 0 56.707031 0.3125 57.261719 0.867188 C 57.816406 1.421875 58.128906 2.171875 58.128906 2.957031 L 58.128906 49.550781 C 58.128906 50.335938 57.816406 51.089844 57.261719 51.644531 C 56.707031 52.199219 55.957031 52.511719 55.171875 52.511719 L 12.339844 52.511719 C 11.554688 52.511719 10.800781 52.199219 10.246094 51.644531 C 9.691406 51.089844 9.382812 50.335938 9.382812 49.550781 L 9.382812 2.957031 C 9.382812 2.171875 9.691406 1.421875 10.246094 0.867188 C 10.800781 0.3125 11.554688 0 12.339844 0 Z M 12.339844 0 " clip-rule="nonzero"/></clipPath><clipPath id="dff1e60a2f"><path d="M 20.539062 12.566406 L 47.164062 12.566406 L 47.164062 39.933594 L 20.539062 39.933594 Z M 20.539062 12.566406 " clip-rule="nonzero"/></clipPath><clipPath id="11af39159a"><path d="M 34 25 L 37 25 L 37 29 L 34 29 Z M 34 25 " clip-rule="nonzero"/></clipPath><clipPath id="5db03f6d82"><path d="M 34.050781 26.238281 L 46.523438 21.585938 L 51.175781 34.058594 L 38.703125 38.710938 Z M 34.050781 26.238281 " clip-rule="nonzero"/></clipPath><clipPath id="ab97be6058"><path d="M 34.050781 26.238281 L 46.523438 21.585938 L 51.175781 34.058594 L 38.703125 38.710938 Z M 34.050781 26.238281 " clip-rule="nonzero"/></clipPath><clipPath id="8d5e872367"><path d="M 42 22 L 46 22 L 46 26 L 42 26 Z M 42 22 " clip-rule="nonzero"/></clipPath><clipPath id="8e6c02aa0c"><path d="M 34.050781 26.238281 L 46.523438 21.585938 L 51.175781 34.058594 L 38.703125 38.710938 Z M 34.050781 26.238281 " clip-rule="nonzero"/></clipPath><clipPath id="0fae3365d5"><path d="M 34.050781 26.238281 L 46.523438 21.585938 L 51.175781 34.058594 L 38.703125 38.710938 Z M 34.050781 26.238281 " clip-rule="nonzero"/></clipPath><clipPath id="c614a2f0ea"><path d="M 38 23 L 42 23 L 42 26 L 38 26 Z M 38 23 " clip-rule="nonzero"/></clipPath><clipPath id="7c0fb80046"><path d="M 34.050781 26.238281 L 46.523438 21.585938 L 51.175781 34.058594 L 38.703125 38.710938 Z M 34.050781 26.238281 " clip-rule="nonzero"/></clipPath><clipPath id="b160532345"><path d="M 34.050781 26.238281 L 46.523438 21.585938 L 51.175781 34.058594 L 38.703125 38.710938 Z M 34.050781 26.238281 " clip-rule="nonzero"/></clipPath><clipPath id="ac7732f342"><path d="M 41 33 L 44 33 L 44 36 L 41 36 Z M 41 33 " clip-rule="nonzero"/></clipPath><clipPath id="9778b10c0b"><path d="M 34.050781 26.238281 L 46.523438 21.585938 L 51.175781 34.058594 L 38.703125 38.710938 Z M 34.050781 26.238281 " clip-rule="nonzero"/></clipPath><clipPath id="3c3cf24471"><path d="M 34.050781 26.238281 L 46.523438 21.585938 L 51.175781 34.058594 L 38.703125 38.710938 Z M 34.050781 26.238281 " clip-rule="nonzero"/></clipPath><clipPath id="c0099fa400"><path d="M 37 33 L 41 33 L 41 37 L 37 37 Z M 37 33 " clip-rule="nonzero"/></clipPath><clipPath id="8abdffea4a"><path d="M 34.050781 26.238281 L 46.523438 21.585938 L 51.175781 34.058594 L 38.703125 38.710938 Z M 34.050781 26.238281 " clip-rule="nonzero"/></clipPath><clipPath id="92133038a2"><path d="M 34.050781 26.238281 L 46.523438 21.585938 L 51.175781 34.058594 L 38.703125 38.710938 Z M 34.050781 26.238281 " clip-rule="nonzero"/></clipPath><clipPath id="1b1c217d41"><path d="M 35 29 L 38 29 L 38 33 L 35 33 Z M 35 29 " clip-rule="nonzero"/></clipPath><clipPath id="57173e9136"><path d="M 34.050781 26.238281 L 46.523438 21.585938 L 51.175781 34.058594 L 38.703125 38.710938 Z M 34.050781 26.238281 " clip-rule="nonzero"/></clipPath><clipPath id="8f0a49b024"><path d="M 34.050781 26.238281 L 46.523438 21.585938 L 51.175781 34.058594 L 38.703125 38.710938 Z M 34.050781 26.238281 " clip-rule="nonzero"/></clipPath><clipPath id="2cbfe25e75"><path d="M 45 25 L 47 25 L 47 29 L 45 29 Z M 45 25 " clip-rule="nonzero"/></clipPath><clipPath id="595232d78f"><path d="M 34.050781 26.238281 L 46.523438 21.585938 L 51.175781 34.058594 L 38.703125 38.710938 Z M 34.050781 26.238281 " clip-rule="nonzero"/></clipPath><clipPath id="4f16b007b7"><path d="M 34.050781 26.238281 L 46.523438 21.585938 L 51.175781 34.058594 L 38.703125 38.710938 Z M 34.050781 26.238281 " clip-rule="nonzero"/></clipPath><clipPath id="b13898c474"><path d="M 42 28 L 51 28 L 51 37 L 42 37 Z M 42 28 " clip-rule="nonzero"/></clipPath><clipPath id="f5b3219a46"><path d="M 34.050781 26.238281 L 46.523438 21.585938 L 51.175781 34.058594 L 38.703125 38.710938 Z M 34.050781 26.238281 " clip-rule="nonzero"/></clipPath><clipPath id="5aeba05cfd"><path d="M 34.050781 26.238281 L 46.523438 21.585938 L 51.175781 34.058594 L 38.703125 38.710938 Z M 34.050781 26.238281 " clip-rule="nonzero"/></clipPath><clipPath id="785b4819fa"><path d="M 19.042969 11.542969 L 48.625 11.542969 L 48.625 41.125 L 19.042969 41.125 Z M 19.042969 11.542969 " clip-rule="nonzero"/></clipPath></defs><g clip-path="url(#5aabc86184)"><path fill="#ffffff" d="M 0.105469 0 L 67.40625 0 L 67.40625 52.511719 L 0.105469 52.511719 Z M 0.105469 0 " fill-opacity="1" fill-rule="nonzero"/><path fill="#ffffff" d="M 0.105469 0 L 67.40625 0 L 67.40625 52.511719 L 0.105469 52.511719 Z M 0.105469 0 " fill-opacity="1" fill-rule="nonzero"/></g><g clip-path="url(#4b50b22e0d)"><g mask="url(#af28236338)"><g transform="matrix(1, 0, 0, 1, 16, 32)"><g clip-path="url(#b7f07e07be)"><g clip-path="url(#e9fd33975a)"><g clip-path="url(#7ce350d625)"><path fill="#ff9201" d="M 0.613281 0.695312 L 51.40625 0.695312 L 51.40625 45.136719 L 0.613281 45.136719 Z M 0.613281 0.695312 " fill-opacity="1" fill-rule="nonzero"/></g></g></g></g></g></g><g clip-path="url(#66e9f52c5a)"><g mask="url(#4af7e4b1eb)"><g transform="matrix(1, 0, 0, 1, 0.000000000000000028, 32)"><g clip-path="url(#d61b0fbfb6)"><g clip-path="url(#8a3892f490)"><g clip-path="url(#5d785982ef)"><path fill="#ff9201" d="M 0.105469 0.695312 L 50.898438 0.695312 L 50.898438 45.136719 L 0.105469 45.136719 Z M 0.105469 0.695312 " fill-opacity="1" fill-rule="nonzero"/></g></g></g></g></g></g><g clip-path="url(#6474fdf655)"><g clip-path="url(#510ba14f35)"><path fill="#ff9201" d="M 9.382812 0 L 58.128906 0 L 58.128906 52.511719 L 9.382812 52.511719 Z M 9.382812 0 " fill-opacity="1" fill-rule="nonzero"/></g></g><g clip-path="url(#dff1e60a2f)"><path fill="#ffffff" d="M 46.902344 18.359375 L 34.035156 12.636719 C 33.914062 12.582031 33.792969 12.582031 33.671875 12.636719 L 20.804688 18.359375 C 20.628906 18.4375 20.539062 18.574219 20.539062 18.761719 L 20.539062 33.734375 C 20.539062 33.921875 20.628906 34.054688 20.804688 34.132812 L 33.671875 39.859375 C 33.792969 39.910156 33.914062 39.910156 34.035156 39.859375 L 46.902344 34.132812 C 47.078125 34.054688 47.164062 33.921875 47.164062 33.734375 L 47.164062 18.761719 C 47.164062 18.574219 47.078125 18.4375 46.902344 18.359375 Z M 33.410156 38.777344 L 21.429688 33.449219 L 21.429688 19.472656 L 33.410156 24.800781 Z M 33.851562 24.035156 L 22.035156 18.777344 L 33.851562 13.523438 L 45.671875 18.777344 Z M 46.277344 33.449219 L 34.296875 38.777344 L 34.296875 24.800781 L 46.277344 19.472656 Z M 46.277344 33.449219 " fill-opacity="1" fill-rule="nonzero"/></g><g clip-path="url(#11af39159a)"><g clip-path="url(#5db03f6d82)"><g clip-path="url(#ab97be6058)"><path fill="#ffffff" d="M 35.570312 28.632812 C 35.269531 28.742188 34.941406 28.601562 34.832031 28.3125 L 34.640625 27.792969 C 34.320312 26.933594 34.789062 25.964844 35.683594 25.628906 L 36.226562 25.425781 C 36.523438 25.316406 36.855469 25.457031 36.960938 25.746094 C 37.070312 26.03125 36.914062 26.355469 36.613281 26.464844 L 36.070312 26.667969 C 35.773438 26.78125 35.617188 27.105469 35.722656 27.390625 L 35.917969 27.910156 C 36.023438 28.195312 35.867188 28.519531 35.570312 28.632812 Z M 35.570312 28.632812 " fill-opacity="1" fill-rule="nonzero"/></g></g></g><g clip-path="url(#8d5e872367)"><g clip-path="url(#8e6c02aa0c)"><g clip-path="url(#0fae3365d5)"><path fill="#ffffff" d="M 45.324219 24.992188 C 45.027344 25.105469 44.695312 24.960938 44.589844 24.675781 L 44.394531 24.15625 C 44.289062 23.871094 43.957031 23.726562 43.660156 23.839844 L 43.117188 24.039062 C 42.816406 24.152344 42.488281 24.007812 42.382812 23.722656 C 42.273438 23.4375 42.429688 23.113281 42.730469 23 L 43.273438 22.796875 C 44.167969 22.464844 45.160156 22.890625 45.480469 23.75 L 45.671875 24.269531 C 45.78125 24.558594 45.625 24.882812 45.324219 24.992188 Z M 45.324219 24.992188 " fill-opacity="1" fill-rule="nonzero"/></g></g></g><g clip-path="url(#c614a2f0ea)"><g clip-path="url(#7c0fb80046)"><g clip-path="url(#b160532345)"><path fill="#ffffff" d="M 40.949219 24.847656 L 38.78125 25.65625 C 38.480469 25.769531 38.152344 25.625 38.046875 25.339844 C 37.9375 25.054688 38.09375 24.730469 38.394531 24.617188 L 40.5625 23.808594 C 40.859375 23.699219 41.191406 23.839844 41.296875 24.128906 C 41.40625 24.414062 41.25 24.738281 40.949219 24.847656 Z M 40.949219 24.847656 " fill-opacity="1" fill-rule="nonzero"/></g></g></g><g clip-path="url(#ac7732f342)"><g clip-path="url(#9778b10c0b)"><g clip-path="url(#3c3cf24471)"><path fill="#ffffff" d="M 43.355469 34.609375 L 42.269531 35.011719 C 41.972656 35.125 41.640625 34.980469 41.535156 34.695312 C 41.429688 34.40625 41.582031 34.085938 41.882812 33.972656 L 42.96875 33.570312 C 43.265625 33.457031 43.597656 33.597656 43.703125 33.886719 C 43.808594 34.171875 43.652344 34.496094 43.355469 34.609375 Z M 43.355469 34.609375 " fill-opacity="1" fill-rule="nonzero"/></g></g></g><g clip-path="url(#c0099fa400)"><g clip-path="url(#8abdffea4a)"><g clip-path="url(#92133038a2)"><path fill="#ffffff" d="M 40.101562 35.820312 L 39.5625 36.023438 C 38.664062 36.359375 37.675781 35.929688 37.351562 35.070312 L 37.160156 34.550781 C 37.050781 34.265625 37.207031 33.941406 37.507812 33.828125 C 37.808594 33.71875 38.136719 33.859375 38.242188 34.144531 L 38.4375 34.667969 C 38.542969 34.953125 38.875 35.09375 39.171875 34.984375 L 39.714844 34.78125 C 40.015625 34.667969 40.34375 34.8125 40.449219 35.097656 C 40.558594 35.386719 40.402344 35.710938 40.101562 35.820312 Z M 40.101562 35.820312 " fill-opacity="1" fill-rule="nonzero"/></g></g></g><g clip-path="url(#1b1c217d41)"><g clip-path="url(#57173e9136)"><g clip-path="url(#8f0a49b024)"><path fill="#ffffff" d="M 37.121094 32.789062 C 36.820312 32.902344 36.492188 32.757812 36.382812 32.472656 L 35.609375 30.394531 C 35.5 30.105469 35.65625 29.78125 35.957031 29.671875 C 36.257812 29.558594 36.585938 29.703125 36.691406 29.988281 L 37.46875 32.066406 C 37.574219 32.355469 37.417969 32.679688 37.121094 32.789062 Z M 37.121094 32.789062 " fill-opacity="1" fill-rule="nonzero"/></g></g></g><g clip-path="url(#2cbfe25e75)"><g clip-path="url(#595232d78f)"><g clip-path="url(#4f16b007b7)"><path fill="#ffffff" d="M 46.488281 28.109375 C 46.1875 28.222656 45.859375 28.082031 45.753906 27.792969 L 45.363281 26.753906 C 45.257812 26.46875 45.414062 26.144531 45.710938 26.03125 C 46.011719 25.921875 46.339844 26.0625 46.449219 26.351562 L 46.835938 27.390625 C 46.941406 27.675781 46.789062 28 46.488281 28.109375 Z M 46.488281 28.109375 " fill-opacity="1" fill-rule="nonzero"/></g></g></g><g clip-path="url(#b13898c474)"><g clip-path="url(#f5b3219a46)"><g clip-path="url(#5aeba05cfd)"><path fill="#ffffff" d="M 50.023438 31.304688 L 43.082031 28.3125 C 42.992188 28.273438 42.890625 28.269531 42.796875 28.304688 C 42.601562 28.378906 42.5 28.589844 42.566406 28.773438 L 45.222656 35.894531 C 45.292969 36.078125 45.507812 36.171875 45.703125 36.101562 C 45.796875 36.0625 45.875 35.996094 45.917969 35.902344 L 47.253906 33 L 49.992188 31.976562 C 50.183594 31.90625 50.289062 31.695312 50.21875 31.507812 C 50.183594 31.417969 50.113281 31.34375 50.023438 31.304688 Z M 50.023438 31.304688 " fill-opacity="1" fill-rule="nonzero"/></g></g></g><g clip-path="url(#785b4819fa)"><path fill="#ffffff" d="M 22.347656 11.757812 L 22.507812 12.265625 C 22.101562 12.394531 21.71875 12.585938 21.367188 12.828125 L 21.0625 12.390625 C 21.460938 12.117188 21.890625 11.902344 22.347656 11.757812 Z M 23.554688 40.585938 L 23.53125 41.117188 C 23.609375 41.121094 23.691406 41.125 23.773438 41.125 L 24.898438 41.125 L 24.898438 40.589844 L 23.773438 40.589844 C 23.699219 40.589844 23.628906 40.589844 23.554688 40.585938 Z M 20.875 40.132812 C 21.257812 40.429688 21.675781 40.664062 22.128906 40.828125 L 22.3125 40.332031 C 21.914062 40.183594 21.539062 39.976562 21.203125 39.714844 Z M 23.765625 12.074219 L 25.121094 12.074219 L 25.121094 11.542969 L 23.765625 11.542969 Z M 19.332031 14.632812 L 19.832031 14.816406 C 19.980469 14.417969 20.1875 14.042969 20.449219 13.707031 L 20.027344 13.378906 C 19.734375 13.761719 19.5 14.183594 19.332031 14.632812 Z M 29.191406 12.074219 L 30.546875 12.074219 L 30.546875 11.542969 L 29.191406 11.542969 Z M 28.96875 41.125 L 30.328125 41.125 L 30.328125 40.589844 L 28.96875 40.589844 Z M 26.257812 41.125 L 27.613281 41.125 L 27.613281 40.589844 L 26.257812 40.589844 Z M 26.476562 12.074219 L 27.835938 12.074219 L 27.835938 11.542969 L 26.476562 11.542969 Z M 31.683594 41.125 L 33.039062 41.125 L 33.039062 40.589844 L 31.683594 40.589844 Z M 19.574219 18.761719 L 19.042969 18.761719 L 19.042969 20.117188 L 19.574219 20.117188 Z M 19.257812 37.8125 C 19.402344 38.269531 19.613281 38.703125 19.890625 39.097656 L 20.324219 38.792969 C 20.082031 38.441406 19.890625 38.058594 19.765625 37.652344 Z M 19.574219 16.273438 C 19.574219 16.203125 19.574219 16.128906 19.578125 16.0625 L 19.046875 16.035156 C 19.042969 16.113281 19.042969 16.191406 19.042969 16.273438 L 19.042969 17.40625 L 19.574219 17.40625 Z M 48.402344 14.84375 C 48.257812 14.386719 48.046875 13.957031 47.769531 13.5625 L 47.332031 13.867188 C 47.578125 14.214844 47.769531 14.601562 47.898438 15.003906 Z M 19.574219 21.472656 L 19.042969 21.472656 L 19.042969 22.832031 L 19.574219 22.832031 Z M 19.574219 29.613281 L 19.042969 29.613281 L 19.042969 30.96875 L 19.574219 30.96875 Z M 19.574219 32.328125 L 19.042969 32.328125 L 19.042969 33.683594 L 19.574219 33.683594 Z M 19.574219 26.902344 L 19.042969 26.902344 L 19.042969 28.257812 L 19.574219 28.257812 Z M 19.574219 24.1875 L 19.042969 24.1875 L 19.042969 25.542969 L 19.574219 25.542969 Z M 19.574219 35.039062 L 19.042969 35.039062 L 19.042969 36.398438 L 19.574219 36.390625 Z M 48.089844 33.894531 L 48.625 33.894531 L 48.625 32.539062 L 48.089844 32.539062 Z M 48.089844 31.183594 L 48.625 31.183594 L 48.625 29.824219 L 48.089844 29.824219 Z M 31.902344 12.074219 L 33.261719 12.074219 L 33.261719 11.542969 L 31.902344 11.542969 Z M 48.089844 36.390625 C 48.089844 36.460938 48.089844 36.527344 48.085938 36.597656 L 48.617188 36.621094 C 48.621094 36.546875 48.625 36.46875 48.625 36.390625 L 48.625 35.25 L 48.089844 35.25 Z M 45.34375 12.332031 C 45.742188 12.476562 46.117188 12.683594 46.457031 12.945312 L 46.78125 12.527344 C 46.402344 12.230469 45.980469 11.996094 45.527344 11.832031 Z M 48.089844 28.46875 L 48.625 28.46875 L 48.625 27.113281 L 48.089844 27.113281 Z M 48.089844 20.328125 L 48.625 20.328125 L 48.625 18.972656 L 48.089844 18.972656 Z M 48.089844 16.257812 L 48.089844 17.617188 L 48.625 17.617188 L 48.625 16.257812 Z M 48.089844 25.757812 L 48.625 25.757812 L 48.625 24.398438 L 48.089844 24.398438 Z M 48.089844 23.042969 L 48.625 23.042969 L 48.625 21.6875 L 48.089844 21.6875 Z M 47.21875 38.953125 L 47.640625 39.277344 C 47.9375 38.894531 48.167969 38.472656 48.335938 38.023438 L 47.835938 37.839844 C 47.6875 38.242188 47.480469 38.613281 47.21875 38.953125 Z M 37.109375 41.125 L 38.464844 41.125 L 38.464844 40.589844 L 37.109375 40.589844 Z M 45.164062 40.394531 L 45.324219 40.902344 C 45.78125 40.757812 46.214844 40.542969 46.609375 40.265625 L 46.300781 39.832031 C 45.953125 40.078125 45.570312 40.265625 45.164062 40.394531 Z M 37.332031 12.074219 L 38.6875 12.074219 L 38.6875 11.542969 L 37.332031 11.542969 Z M 34.394531 41.125 L 35.753906 41.125 L 35.753906 40.589844 L 34.394531 40.589844 Z M 34.617188 12.074219 L 35.972656 12.074219 L 35.972656 11.542969 L 34.617188 11.542969 Z M 42.757812 11.542969 L 42.757812 12.074219 L 43.890625 12.074219 C 43.960938 12.074219 44.03125 12.074219 44.097656 12.078125 L 44.125 11.546875 C 44.046875 11.542969 43.96875 11.542969 43.890625 11.542969 Z M 42.535156 41.125 L 43.910156 41.125 L 43.910156 40.589844 L 42.535156 40.589844 Z M 40.042969 12.074219 L 41.398438 12.074219 L 41.398438 11.542969 L 40.042969 11.542969 Z M 39.824219 41.125 L 41.179688 41.125 L 41.179688 40.589844 L 39.824219 40.589844 Z M 39.824219 41.125 " fill-opacity="1" fill-rule="nonzero"/></g></svg>