<svg xmlns="http://www.w3.org/2000/svg" xmlns:xlink="http://www.w3.org/1999/xlink" width="151" zoomAndPan="magnify" viewBox="0 0 113.25 113.249998" height="151" preserveAspectRatio="xMidYMid meet" version="1.0"><defs><g/><clipPath id="9fc5244e36"><path d="M 0 0 L 112.503906 0 L 112.503906 112.503906 L 0 112.503906 Z M 0 0 " clip-rule="nonzero"/></clipPath><clipPath id="08d9dce419"><path d="M 112.503906 56.253906 C 112.503906 87.320312 87.320312 112.503906 56.253906 112.503906 C 25.183594 112.503906 0 87.320312 0 56.253906 C 0 25.183594 25.183594 0 56.253906 0 C 87.320312 0 112.503906 25.183594 112.503906 56.253906 Z M 112.503906 56.253906 " clip-rule="nonzero"/></clipPath></defs><g clip-path="url(#9fc5244e36)"><g clip-path="url(#08d9dce419)"><path fill="#ff9201" d="M 0 0 L 112.503906 0 L 112.503906 112.503906 L 0 112.503906 Z M 0 0 " fill-opacity="1" fill-rule="nonzero"/></g></g><g fill="#ffffff" fill-opacity="1"><g transform="translate(9.265967, 44.740301)"><g><path d="M 5.328125 0.140625 C 4.429688 0.140625 3.640625 -0.0390625 2.953125 -0.40625 C 2.265625 -0.769531 1.726562 -1.328125 1.34375 -2.078125 C 0.957031 -2.828125 0.765625 -3.757812 0.765625 -4.875 C 0.765625 -6 0.957031 -6.9375 1.34375 -7.6875 C 1.726562 -8.4375 2.265625 -8.992188 2.953125 -9.359375 C 3.640625 -9.722656 4.429688 -9.90625 5.328125 -9.90625 C 6.210938 -9.90625 6.992188 -9.722656 7.671875 -9.359375 C 8.359375 -8.992188 8.894531 -8.4375 9.28125 -7.6875 C 9.664062 -6.9375 9.859375 -6 9.859375 -4.875 C 9.859375 -3.757812 9.664062 -2.828125 9.28125 -2.078125 C 8.894531 -1.328125 8.359375 -0.769531 7.671875 -0.40625 C 6.992188 -0.0390625 6.210938 0.140625 5.328125 0.140625 Z M 5.328125 -1.53125 C 6.148438 -1.53125 6.78125 -1.796875 7.21875 -2.328125 C 7.65625 -2.859375 7.875 -3.707031 7.875 -4.875 C 7.875 -6.039062 7.65625 -6.890625 7.21875 -7.421875 C 6.78125 -7.960938 6.148438 -8.234375 5.328125 -8.234375 C 4.492188 -8.234375 3.851562 -7.960938 3.40625 -7.421875 C 2.96875 -6.890625 2.75 -6.039062 2.75 -4.875 C 2.75 -3.707031 2.96875 -2.859375 3.40625 -2.328125 C 3.851562 -1.796875 4.492188 -1.53125 5.328125 -1.53125 Z M 5.328125 -1.53125 "/></g></g></g><g fill="#ffffff" fill-opacity="1"><g transform="translate(19.905892, 44.740301)"><g><path d="M 1.0625 2.984375 L 1.0625 -7.359375 L 2.90625 -7.359375 L 2.90625 -6.40625 L 3.046875 -6.375 C 3.265625 -6.75 3.554688 -7.03125 3.921875 -7.21875 C 4.285156 -7.40625 4.710938 -7.5 5.203125 -7.5 C 5.796875 -7.5 6.3125 -7.359375 6.75 -7.078125 C 7.195312 -6.796875 7.546875 -6.367188 7.796875 -5.796875 C 8.046875 -5.234375 8.171875 -4.523438 8.171875 -3.671875 C 8.171875 -2.835938 8.039062 -2.132812 7.78125 -1.5625 C 7.519531 -0.988281 7.15625 -0.5625 6.6875 -0.28125 C 6.226562 0 5.695312 0.140625 5.09375 0.140625 C 4.632812 0.140625 4.234375 0.0625 3.890625 -0.09375 C 3.554688 -0.25 3.273438 -0.488281 3.046875 -0.8125 L 2.90625 -0.78125 L 2.90625 2.984375 Z M 4.578125 -1.421875 C 5.128906 -1.421875 5.546875 -1.601562 5.828125 -1.96875 C 6.109375 -2.332031 6.25 -2.898438 6.25 -3.671875 C 6.25 -4.453125 6.109375 -5.023438 5.828125 -5.390625 C 5.546875 -5.753906 5.128906 -5.9375 4.578125 -5.9375 C 4.054688 -5.9375 3.644531 -5.75 3.34375 -5.375 C 3.039062 -5 2.890625 -4.429688 2.890625 -3.671875 C 2.890625 -2.921875 3.039062 -2.359375 3.34375 -1.984375 C 3.644531 -1.609375 4.054688 -1.421875 4.578125 -1.421875 Z M 4.578125 -1.421875 "/></g></g></g><g fill="#ffffff" fill-opacity="1"><g transform="translate(28.729082, 44.740301)"><g><path d="M 1.0625 2.984375 L 1.0625 -7.359375 L 2.90625 -7.359375 L 2.90625 -6.40625 L 3.046875 -6.375 C 3.265625 -6.75 3.554688 -7.03125 3.921875 -7.21875 C 4.285156 -7.40625 4.710938 -7.5 5.203125 -7.5 C 5.796875 -7.5 6.3125 -7.359375 6.75 -7.078125 C 7.195312 -6.796875 7.546875 -6.367188 7.796875 -5.796875 C 8.046875 -5.234375 8.171875 -4.523438 8.171875 -3.671875 C 8.171875 -2.835938 8.039062 -2.132812 7.78125 -1.5625 C 7.519531 -0.988281 7.15625 -0.5625 6.6875 -0.28125 C 6.226562 0 5.695312 0.140625 5.09375 0.140625 C 4.632812 0.140625 4.234375 0.0625 3.890625 -0.09375 C 3.554688 -0.25 3.273438 -0.488281 3.046875 -0.8125 L 2.90625 -0.78125 L 2.90625 2.984375 Z M 4.578125 -1.421875 C 5.128906 -1.421875 5.546875 -1.601562 5.828125 -1.96875 C 6.109375 -2.332031 6.25 -2.898438 6.25 -3.671875 C 6.25 -4.453125 6.109375 -5.023438 5.828125 -5.390625 C 5.546875 -5.753906 5.128906 -5.9375 4.578125 -5.9375 C 4.054688 -5.9375 3.644531 -5.75 3.34375 -5.375 C 3.039062 -5 2.890625 -4.429688 2.890625 -3.671875 C 2.890625 -2.921875 3.039062 -2.359375 3.34375 -1.984375 C 3.644531 -1.609375 4.054688 -1.421875 4.578125 -1.421875 Z M 4.578125 -1.421875 "/></g></g></g><g fill="#ffffff" fill-opacity="1"><g transform="translate(37.552272, 44.740301)"><g><path d="M 4.28125 0.140625 C 3.5625 0.140625 2.925781 -0.00390625 2.375 -0.296875 C 1.832031 -0.597656 1.410156 -1.035156 1.109375 -1.609375 C 0.804688 -2.179688 0.65625 -2.867188 0.65625 -3.671875 C 0.65625 -4.484375 0.804688 -5.175781 1.109375 -5.75 C 1.410156 -6.320312 1.832031 -6.753906 2.375 -7.046875 C 2.925781 -7.347656 3.5625 -7.5 4.28125 -7.5 C 5 -7.5 5.628906 -7.347656 6.171875 -7.046875 C 6.722656 -6.753906 7.148438 -6.320312 7.453125 -5.75 C 7.753906 -5.175781 7.90625 -4.484375 7.90625 -3.671875 C 7.90625 -2.867188 7.753906 -2.179688 7.453125 -1.609375 C 7.148438 -1.035156 6.722656 -0.597656 6.171875 -0.296875 C 5.628906 -0.00390625 5 0.140625 4.28125 0.140625 Z M 4.28125 -1.421875 C 5.425781 -1.421875 6 -2.171875 6 -3.671875 C 6 -4.453125 5.847656 -5.023438 5.546875 -5.390625 C 5.253906 -5.753906 4.832031 -5.9375 4.28125 -5.9375 C 3.132812 -5.9375 2.5625 -5.179688 2.5625 -3.671875 C 2.5625 -2.171875 3.132812 -1.421875 4.28125 -1.421875 Z M 4.28125 -1.421875 "/></g></g></g><g fill="#ffffff" fill-opacity="1"><g transform="translate(46.114969, 44.740301)"><g><path d="M 1.0625 0 L 1.0625 -7.359375 L 2.859375 -7.359375 L 2.859375 -6.265625 L 3 -6.234375 C 3.175781 -6.648438 3.40625 -6.953125 3.6875 -7.140625 C 3.976562 -7.335938 4.332031 -7.4375 4.75 -7.4375 C 5.164062 -7.4375 5.484375 -7.363281 5.703125 -7.21875 L 5.390625 -5.625 L 5.25 -5.59375 C 5.132812 -5.644531 5.019531 -5.679688 4.90625 -5.703125 C 4.789062 -5.722656 4.65625 -5.734375 4.5 -5.734375 C 3.976562 -5.734375 3.582031 -5.550781 3.3125 -5.1875 C 3.039062 -4.820312 2.90625 -4.238281 2.90625 -3.4375 L 2.90625 0 Z M 1.0625 0 "/></g></g></g><g fill="#ffffff" fill-opacity="1"><g transform="translate(51.892457, 44.740301)"><g><path d="M 5.078125 -1.75 L 5.5625 -0.390625 C 5.363281 -0.222656 5.113281 -0.09375 4.8125 0 C 4.507812 0.09375 4.164062 0.140625 3.78125 0.140625 C 2.976562 0.140625 2.367188 -0.0703125 1.953125 -0.5 C 1.546875 -0.9375 1.34375 -1.570312 1.34375 -2.40625 L 1.34375 -5.90625 L 0.21875 -5.90625 L 0.21875 -7.375 L 1.34375 -7.375 L 1.34375 -8.8125 L 3.1875 -9.109375 L 3.1875 -7.375 L 5.28125 -7.375 L 5.28125 -5.90625 L 3.1875 -5.90625 L 3.1875 -2.53125 C 3.1875 -2.164062 3.257812 -1.898438 3.40625 -1.734375 C 3.5625 -1.566406 3.785156 -1.484375 4.078125 -1.484375 C 4.410156 -1.484375 4.695312 -1.570312 4.9375 -1.75 Z M 5.078125 -1.75 "/></g></g></g><g fill="#ffffff" fill-opacity="1"><g transform="translate(57.616512, 44.740301)"><g><path d="M 3.375 0.140625 C 2.539062 0.140625 1.925781 -0.0820312 1.53125 -0.53125 C 1.144531 -0.988281 0.953125 -1.640625 0.953125 -2.484375 L 0.953125 -7.359375 L 2.796875 -7.359375 L 2.796875 -2.71875 C 2.796875 -2.269531 2.890625 -1.941406 3.078125 -1.734375 C 3.273438 -1.523438 3.578125 -1.421875 3.984375 -1.421875 C 4.492188 -1.421875 4.890625 -1.585938 5.171875 -1.921875 C 5.460938 -2.265625 5.609375 -2.796875 5.609375 -3.515625 L 5.609375 -7.359375 L 7.453125 -7.359375 L 7.453125 0 L 5.6875 0 L 5.6875 -1.078125 L 5.546875 -1.109375 C 5.304688 -0.691406 5.015625 -0.378906 4.671875 -0.171875 C 4.335938 0.0351562 3.90625 0.140625 3.375 0.140625 Z M 3.375 0.140625 "/></g></g></g><g fill="#ffffff" fill-opacity="1"><g transform="translate(66.139133, 44.740301)"><g><path d="M 1.0625 0 L 1.0625 -7.359375 L 2.84375 -7.359375 L 2.84375 -6.28125 L 2.984375 -6.25 C 3.441406 -7.082031 4.179688 -7.5 5.203125 -7.5 C 6.054688 -7.5 6.679688 -7.265625 7.078125 -6.796875 C 7.472656 -6.335938 7.671875 -5.664062 7.671875 -4.78125 L 7.671875 0 L 5.828125 0 L 5.828125 -4.5625 C 5.828125 -5.050781 5.726562 -5.398438 5.53125 -5.609375 C 5.332031 -5.828125 5.019531 -5.9375 4.59375 -5.9375 C 4.0625 -5.9375 3.644531 -5.765625 3.34375 -5.421875 C 3.050781 -5.078125 2.90625 -4.539062 2.90625 -3.8125 L 2.90625 0 Z M 1.0625 0 "/></g></g></g><g fill="#ffffff" fill-opacity="1"><g transform="translate(74.768622, 44.740301)"><g><path d="M 1.984375 -8.25 C 1.648438 -8.25 1.378906 -8.347656 1.171875 -8.546875 C 0.960938 -8.753906 0.859375 -9.015625 0.859375 -9.328125 C 0.859375 -9.648438 0.960938 -9.910156 1.171875 -10.109375 C 1.378906 -10.316406 1.648438 -10.421875 1.984375 -10.421875 C 2.203125 -10.421875 2.398438 -10.375 2.578125 -10.28125 C 2.753906 -10.1875 2.890625 -10.054688 2.984375 -9.890625 C 3.078125 -9.722656 3.125 -9.535156 3.125 -9.328125 C 3.125 -9.117188 3.078125 -8.929688 2.984375 -8.765625 C 2.890625 -8.609375 2.753906 -8.484375 2.578125 -8.390625 C 2.398438 -8.296875 2.203125 -8.25 1.984375 -8.25 Z M 1.0625 0 L 1.0625 -7.359375 L 2.90625 -7.359375 L 2.90625 0 Z M 1.0625 0 "/></g></g></g><g fill="#ffffff" fill-opacity="1"><g transform="translate(78.736049, 44.740301)"><g><path d="M 5.078125 -1.75 L 5.5625 -0.390625 C 5.363281 -0.222656 5.113281 -0.09375 4.8125 0 C 4.507812 0.09375 4.164062 0.140625 3.78125 0.140625 C 2.976562 0.140625 2.367188 -0.0703125 1.953125 -0.5 C 1.546875 -0.9375 1.34375 -1.570312 1.34375 -2.40625 L 1.34375 -5.90625 L 0.21875 -5.90625 L 0.21875 -7.375 L 1.34375 -7.375 L 1.34375 -8.8125 L 3.1875 -9.109375 L 3.1875 -7.375 L 5.28125 -7.375 L 5.28125 -5.90625 L 3.1875 -5.90625 L 3.1875 -2.53125 C 3.1875 -2.164062 3.257812 -1.898438 3.40625 -1.734375 C 3.5625 -1.566406 3.785156 -1.484375 4.078125 -1.484375 C 4.410156 -1.484375 4.695312 -1.570312 4.9375 -1.75 Z M 5.078125 -1.75 "/></g></g></g><g fill="#ffffff" fill-opacity="1"><g transform="translate(84.460104, 44.740301)"><g><path d="M 1.984375 -8.25 C 1.648438 -8.25 1.378906 -8.347656 1.171875 -8.546875 C 0.960938 -8.753906 0.859375 -9.015625 0.859375 -9.328125 C 0.859375 -9.648438 0.960938 -9.910156 1.171875 -10.109375 C 1.378906 -10.316406 1.648438 -10.421875 1.984375 -10.421875 C 2.203125 -10.421875 2.398438 -10.375 2.578125 -10.28125 C 2.753906 -10.1875 2.890625 -10.054688 2.984375 -9.890625 C 3.078125 -9.722656 3.125 -9.535156 3.125 -9.328125 C 3.125 -9.117188 3.078125 -8.929688 2.984375 -8.765625 C 2.890625 -8.609375 2.753906 -8.484375 2.578125 -8.390625 C 2.398438 -8.296875 2.203125 -8.25 1.984375 -8.25 Z M 1.0625 0 L 1.0625 -7.359375 L 2.90625 -7.359375 L 2.90625 0 Z M 1.0625 0 "/></g></g></g><g fill="#ffffff" fill-opacity="1"><g transform="translate(88.427531, 44.740301)"><g><path d="M 7.28125 -3.265625 L 2.546875 -3.265625 C 2.597656 -2.617188 2.78125 -2.148438 3.09375 -1.859375 C 3.40625 -1.566406 3.828125 -1.421875 4.359375 -1.421875 C 4.785156 -1.421875 5.128906 -1.5 5.390625 -1.65625 C 5.648438 -1.820312 5.863281 -2.066406 6.03125 -2.390625 L 6.171875 -2.390625 L 7.390625 -1.59375 C 7.148438 -1.082031 6.785156 -0.664062 6.296875 -0.34375 C 5.816406 -0.0195312 5.171875 0.140625 4.359375 0.140625 C 3.597656 0.140625 2.941406 -0.00390625 2.390625 -0.296875 C 1.835938 -0.585938 1.410156 -1.015625 1.109375 -1.578125 C 0.804688 -2.148438 0.65625 -2.847656 0.65625 -3.671875 C 0.65625 -4.515625 0.8125 -5.222656 1.125 -5.796875 C 1.445312 -6.367188 1.875 -6.796875 2.40625 -7.078125 C 2.945312 -7.359375 3.554688 -7.5 4.234375 -7.5 C 5.273438 -7.5 6.070312 -7.222656 6.625 -6.671875 C 7.175781 -6.117188 7.453125 -5.3125 7.453125 -4.25 C 7.453125 -3.863281 7.441406 -3.5625 7.421875 -3.34375 Z M 5.6875 -4.453125 C 5.664062 -5.015625 5.535156 -5.421875 5.296875 -5.671875 C 5.054688 -5.929688 4.703125 -6.0625 4.234375 -6.0625 C 3.296875 -6.0625 2.742188 -5.523438 2.578125 -4.453125 Z M 5.6875 -4.453125 "/></g></g></g><g fill="#ffffff" fill-opacity="1"><g transform="translate(96.435863, 44.740301)"><g><path d="M 3.4375 0.140625 C 2.9375 0.140625 2.476562 0.0820312 2.0625 -0.03125 C 1.644531 -0.15625 1.285156 -0.316406 0.984375 -0.515625 C 0.691406 -0.722656 0.472656 -0.960938 0.328125 -1.234375 L 1.359375 -2.34375 L 1.5 -2.34375 C 1.75 -2.007812 2.039062 -1.757812 2.375 -1.59375 C 2.707031 -1.4375 3.066406 -1.359375 3.453125 -1.359375 C 3.816406 -1.359375 4.085938 -1.421875 4.265625 -1.546875 C 4.453125 -1.679688 4.546875 -1.867188 4.546875 -2.109375 C 4.546875 -2.296875 4.476562 -2.453125 4.34375 -2.578125 C 4.21875 -2.703125 4.007812 -2.800781 3.71875 -2.875 L 2.734375 -3.109375 C 2.003906 -3.273438 1.472656 -3.535156 1.140625 -3.890625 C 0.804688 -4.253906 0.640625 -4.710938 0.640625 -5.265625 C 0.640625 -5.722656 0.753906 -6.117188 0.984375 -6.453125 C 1.210938 -6.796875 1.539062 -7.054688 1.96875 -7.234375 C 2.394531 -7.410156 2.890625 -7.5 3.453125 -7.5 C 4.117188 -7.5 4.671875 -7.398438 5.109375 -7.203125 C 5.546875 -7.015625 5.882812 -6.765625 6.125 -6.453125 L 5.140625 -5.375 L 5 -5.375 C 4.800781 -5.613281 4.570312 -5.785156 4.3125 -5.890625 C 4.0625 -5.992188 3.773438 -6.046875 3.453125 -6.046875 C 2.722656 -6.046875 2.359375 -5.820312 2.359375 -5.375 C 2.359375 -5.175781 2.425781 -5.015625 2.5625 -4.890625 C 2.695312 -4.773438 2.9375 -4.679688 3.28125 -4.609375 L 4.1875 -4.40625 C 4.9375 -4.25 5.484375 -3.992188 5.828125 -3.640625 C 6.171875 -3.285156 6.34375 -2.804688 6.34375 -2.203125 C 6.34375 -1.742188 6.226562 -1.332031 6 -0.96875 C 5.769531 -0.613281 5.4375 -0.335938 5 -0.140625 C 4.5625 0.046875 4.039062 0.140625 3.4375 0.140625 Z M 3.4375 0.140625 "/></g></g></g><g fill="#ffffff" fill-opacity="1"><g transform="translate(52.014114, 63.753134)"><g><path d="M 3.703125 0.125 C 3.046875 0.125 2.472656 0.015625 1.984375 -0.203125 C 1.492188 -0.421875 1.113281 -0.738281 0.84375 -1.15625 C 0.582031 -1.570312 0.453125 -2.054688 0.453125 -2.609375 C 0.453125 -3.203125 0.597656 -3.695312 0.890625 -4.09375 C 1.191406 -4.488281 1.640625 -4.8125 2.234375 -5.0625 L 2.25 -5.203125 C 1.976562 -5.535156 1.78125 -5.84375 1.65625 -6.125 C 1.539062 -6.40625 1.484375 -6.71875 1.484375 -7.0625 C 1.484375 -7.476562 1.582031 -7.84375 1.78125 -8.15625 C 1.976562 -8.476562 2.265625 -8.726562 2.640625 -8.90625 C 3.015625 -9.09375 3.460938 -9.1875 3.984375 -9.1875 C 4.484375 -9.1875 4.910156 -9.101562 5.265625 -8.9375 C 5.617188 -8.769531 5.882812 -8.539062 6.0625 -8.25 C 6.25 -7.957031 6.34375 -7.617188 6.34375 -7.234375 C 6.34375 -6.722656 6.1875 -6.273438 5.875 -5.890625 C 5.570312 -5.515625 5.097656 -5.203125 4.453125 -4.953125 L 4.4375 -4.8125 L 6.109375 -2.609375 C 6.210938 -2.828125 6.28125 -3.070312 6.3125 -3.34375 C 6.351562 -3.625 6.375 -3.941406 6.375 -4.296875 L 6.375 -4.609375 L 7.828125 -4.609375 C 7.828125 -3.335938 7.578125 -2.3125 7.078125 -1.53125 C 7.179688 -1.445312 7.269531 -1.382812 7.34375 -1.34375 C 7.414062 -1.3125 7.5 -1.296875 7.59375 -1.296875 C 7.675781 -1.296875 7.742188 -1.300781 7.796875 -1.3125 C 7.859375 -1.320312 7.921875 -1.335938 7.984375 -1.359375 L 8.078125 -1.328125 L 8.296875 -0.09375 C 8.210938 -0.03125 8.097656 0.0078125 7.953125 0.03125 C 7.816406 0.0625 7.660156 0.078125 7.484375 0.078125 C 7.179688 0.078125 6.914062 0.03125 6.6875 -0.0625 C 6.457031 -0.164062 6.238281 -0.320312 6.03125 -0.53125 L 5.890625 -0.53125 C 5.378906 -0.09375 4.648438 0.125 3.703125 0.125 Z M 3.703125 -5.8125 C 4.085938 -6 4.363281 -6.1875 4.53125 -6.375 C 4.707031 -6.570312 4.796875 -6.820312 4.796875 -7.125 C 4.796875 -7.375 4.71875 -7.566406 4.5625 -7.703125 C 4.414062 -7.847656 4.21875 -7.921875 3.96875 -7.921875 C 3.71875 -7.921875 3.515625 -7.84375 3.359375 -7.6875 C 3.203125 -7.539062 3.125 -7.335938 3.125 -7.078125 C 3.125 -6.878906 3.164062 -6.691406 3.25 -6.515625 C 3.332031 -6.335938 3.484375 -6.101562 3.703125 -5.8125 Z M 3.921875 -1.34375 C 4.316406 -1.34375 4.65625 -1.421875 4.9375 -1.578125 L 2.921875 -4.140625 C 2.679688 -3.984375 2.503906 -3.796875 2.390625 -3.578125 C 2.273438 -3.367188 2.21875 -3.117188 2.21875 -2.828125 C 2.21875 -2.535156 2.285156 -2.273438 2.421875 -2.046875 C 2.566406 -1.816406 2.765625 -1.640625 3.015625 -1.515625 C 3.273438 -1.398438 3.578125 -1.34375 3.921875 -1.34375 Z M 3.921875 -1.34375 "/></g></g></g><g fill="#ffffff" fill-opacity="1"><g transform="translate(29.78087, 78.990933)"><g><path d="M 4.734375 0.140625 C 3.921875 0.140625 3.21875 -0.0390625 2.625 -0.40625 C 2.03125 -0.78125 1.570312 -1.34375 1.25 -2.09375 C 0.925781 -2.84375 0.765625 -3.769531 0.765625 -4.875 C 0.765625 -5.988281 0.957031 -6.921875 1.34375 -7.671875 C 1.726562 -8.421875 2.265625 -8.976562 2.953125 -9.34375 C 3.640625 -9.71875 4.441406 -9.90625 5.359375 -9.90625 C 6.285156 -9.90625 7.078125 -9.726562 7.734375 -9.375 C 8.398438 -9.03125 8.863281 -8.515625 9.125 -7.828125 L 7.71875 -6.96875 L 7.5625 -6.984375 C 7.351562 -7.421875 7.066406 -7.738281 6.703125 -7.9375 C 6.347656 -8.132812 5.898438 -8.234375 5.359375 -8.234375 C 4.515625 -8.234375 3.867188 -7.96875 3.421875 -7.4375 C 2.972656 -6.90625 2.75 -6.050781 2.75 -4.875 C 2.75 -3.695312 2.957031 -2.84375 3.375 -2.3125 C 3.789062 -1.78125 4.410156 -1.515625 5.234375 -1.515625 C 5.929688 -1.515625 6.445312 -1.671875 6.78125 -1.984375 C 7.113281 -2.296875 7.28125 -2.765625 7.28125 -3.390625 L 7.28125 -3.8125 L 4.96875 -3.8125 L 4.96875 -5.390625 L 9.203125 -5.390625 L 9.203125 0 L 7.359375 0 L 7.359375 -1.3125 L 7.21875 -1.328125 C 7.019531 -0.859375 6.710938 -0.492188 6.296875 -0.234375 C 5.890625 0.015625 5.367188 0.140625 4.734375 0.140625 Z M 4.734375 0.140625 "/></g></g></g><g fill="#ffffff" fill-opacity="1"><g transform="translate(39.966611, 78.990933)"><g><path d="M 1.0625 0 L 1.0625 -7.359375 L 2.859375 -7.359375 L 2.859375 -6.265625 L 3 -6.234375 C 3.175781 -6.648438 3.40625 -6.953125 3.6875 -7.140625 C 3.976562 -7.335938 4.332031 -7.4375 4.75 -7.4375 C 5.164062 -7.4375 5.484375 -7.363281 5.703125 -7.21875 L 5.390625 -5.625 L 5.25 -5.59375 C 5.132812 -5.644531 5.019531 -5.679688 4.90625 -5.703125 C 4.789062 -5.722656 4.65625 -5.734375 4.5 -5.734375 C 3.976562 -5.734375 3.582031 -5.550781 3.3125 -5.1875 C 3.039062 -4.820312 2.90625 -4.238281 2.90625 -3.4375 L 2.90625 0 Z M 1.0625 0 "/></g></g></g><g fill="#ffffff" fill-opacity="1"><g transform="translate(45.744099, 78.990933)"><g><path d="M 4.28125 0.140625 C 3.5625 0.140625 2.925781 -0.00390625 2.375 -0.296875 C 1.832031 -0.597656 1.410156 -1.035156 1.109375 -1.609375 C 0.804688 -2.179688 0.65625 -2.867188 0.65625 -3.671875 C 0.65625 -4.484375 0.804688 -5.175781 1.109375 -5.75 C 1.410156 -6.320312 1.832031 -6.753906 2.375 -7.046875 C 2.925781 -7.347656 3.5625 -7.5 4.28125 -7.5 C 5 -7.5 5.628906 -7.347656 6.171875 -7.046875 C 6.722656 -6.753906 7.148438 -6.320312 7.453125 -5.75 C 7.753906 -5.175781 7.90625 -4.484375 7.90625 -3.671875 C 7.90625 -2.867188 7.753906 -2.179688 7.453125 -1.609375 C 7.148438 -1.035156 6.722656 -0.597656 6.171875 -0.296875 C 5.628906 -0.00390625 5 0.140625 4.28125 0.140625 Z M 4.28125 -1.421875 C 5.425781 -1.421875 6 -2.171875 6 -3.671875 C 6 -4.453125 5.847656 -5.023438 5.546875 -5.390625 C 5.253906 -5.753906 4.832031 -5.9375 4.28125 -5.9375 C 3.132812 -5.9375 2.5625 -5.179688 2.5625 -3.671875 C 2.5625 -2.171875 3.132812 -1.421875 4.28125 -1.421875 Z M 4.28125 -1.421875 "/></g></g></g><g fill="#ffffff" fill-opacity="1"><g transform="translate(54.306796, 78.990933)"><g><path d="M 3.953125 0 L 2.015625 0 L 0.265625 -7.359375 L 1.984375 -7.359375 L 3.0625 -2.390625 L 3.203125 -2.390625 L 4.609375 -7.359375 L 6.203125 -7.359375 L 7.65625 -2.390625 L 7.796875 -2.390625 L 8.84375 -7.359375 L 10.5 -7.359375 L 8.78125 0 L 6.84375 0 L 5.4375 -5.015625 L 5.296875 -5.015625 Z M 3.953125 0 "/></g></g></g><g fill="#ffffff" fill-opacity="1"><g transform="translate(65.080303, 78.990933)"><g><path d="M 5.078125 -1.75 L 5.5625 -0.390625 C 5.363281 -0.222656 5.113281 -0.09375 4.8125 0 C 4.507812 0.09375 4.164062 0.140625 3.78125 0.140625 C 2.976562 0.140625 2.367188 -0.0703125 1.953125 -0.5 C 1.546875 -0.9375 1.34375 -1.570312 1.34375 -2.40625 L 1.34375 -5.90625 L 0.21875 -5.90625 L 0.21875 -7.375 L 1.34375 -7.375 L 1.34375 -8.8125 L 3.1875 -9.109375 L 3.1875 -7.375 L 5.28125 -7.375 L 5.28125 -5.90625 L 3.1875 -5.90625 L 3.1875 -2.53125 C 3.1875 -2.164062 3.257812 -1.898438 3.40625 -1.734375 C 3.5625 -1.566406 3.785156 -1.484375 4.078125 -1.484375 C 4.410156 -1.484375 4.695312 -1.570312 4.9375 -1.75 Z M 5.078125 -1.75 "/></g></g></g><g fill="#ffffff" fill-opacity="1"><g transform="translate(70.804358, 78.990933)"><g><path d="M 1.0625 0 L 1.0625 -10.328125 L 2.90625 -10.328125 L 2.90625 -6.40625 L 3.046875 -6.375 C 3.296875 -6.738281 3.597656 -7.015625 3.953125 -7.203125 C 4.304688 -7.398438 4.734375 -7.5 5.234375 -7.5 C 6.859375 -7.5 7.671875 -6.578125 7.671875 -4.734375 L 7.671875 0 L 5.828125 0 L 5.828125 -4.5 C 5.828125 -5.007812 5.726562 -5.375 5.53125 -5.59375 C 5.332031 -5.820312 5.019531 -5.9375 4.59375 -5.9375 C 4.070312 -5.9375 3.660156 -5.765625 3.359375 -5.421875 C 3.054688 -5.078125 2.90625 -4.539062 2.90625 -3.8125 L 2.90625 0 Z M 1.0625 0 "/></g></g></g></svg>