<svg xmlns="http://www.w3.org/2000/svg" xmlns:xlink="http://www.w3.org/1999/xlink" width="40" zoomAndPan="magnify" viewBox="0 0 30 30.000001" height="40" preserveAspectRatio="xMidYMid meet" version="1.0"><defs><filter x="0%" y="0%" width="100%" height="100%" id="d70b8e17ac"><feColorMatrix values="0 0 0 0 1 0 0 0 0 1 0 0 0 0 1 0 0 0 1 0" color-interpolation-filters="sRGB"/></filter><mask id="b7488d0b48"><g filter="url(#d70b8e17ac)"><rect x="-3" width="36" fill="#000000" y="-3" height="36.000001" fill-opacity="0.05"/></g></mask><clipPath id="0a3076b1a1"><path d="M 0.128906 0.847656 L 21.613281 0.847656 L 21.613281 22.332031 L 0.128906 22.332031 Z M 0.128906 0.847656 " clip-rule="nonzero"/></clipPath><clipPath id="1a5978d05d"><path d="M 10.871094 0.847656 C 4.9375 0.847656 0.128906 5.65625 0.128906 11.589844 C 0.128906 17.519531 4.9375 22.332031 10.871094 22.332031 C 16.804688 22.332031 21.613281 17.519531 21.613281 11.589844 C 21.613281 5.65625 16.804688 0.847656 10.871094 0.847656 Z M 10.871094 0.847656 " clip-rule="nonzero"/></clipPath><clipPath id="ac863d886f"><rect x="0" width="22" y="0" height="23"/></clipPath><clipPath id="e0062466e7"><path d="M 18.992188 0 L 29.515625 0 L 29.515625 10.523438 L 18.992188 10.523438 Z M 18.992188 0 " clip-rule="nonzero"/></clipPath><clipPath id="4cad7923d8"><path d="M 24.253906 0 C 21.347656 0 18.992188 2.355469 18.992188 5.261719 C 18.992188 8.167969 21.347656 10.523438 24.253906 10.523438 C 27.160156 10.523438 29.515625 8.167969 29.515625 5.261719 C 29.515625 2.355469 27.160156 0 24.253906 0 Z M 24.253906 0 " clip-rule="nonzero"/></clipPath></defs><g mask="url(#b7488d0b48)"><g transform="matrix(1, 0, 0, 1, 5, 3)"><g clip-path="url(#ac863d886f)"><g clip-path="url(#0a3076b1a1)"><g clip-path="url(#1a5978d05d)"><path fill="#ff9201" d="M 0.128906 0.847656 L 21.613281 0.847656 L 21.613281 22.332031 L 0.128906 22.332031 Z M 0.128906 0.847656 " fill-opacity="1" fill-rule="nonzero"/></g></g></g></g></g><g clip-path="url(#e0062466e7)"><g clip-path="url(#4cad7923d8)"><path fill="#ff9201" d="M 18.992188 0 L 29.515625 0 L 29.515625 10.523438 L 18.992188 10.523438 Z M 18.992188 0 " fill-opacity="1" fill-rule="nonzero"/></g></g></svg>