<svg xmlns="http://www.w3.org/2000/svg" xmlns:xlink="http://www.w3.org/1999/xlink" width="40" zoomAndPan="magnify" viewBox="0 0 30 30.000001" height="40" preserveAspectRatio="xMidYMid meet" version="1.0"><defs><g/><clipPath id="2c96669490"><path d="M 0.484375 0 L 29.515625 0 L 29.515625 29.03125 L 0.484375 29.03125 Z M 0.484375 0 " clip-rule="nonzero"/></clipPath></defs><g clip-path="url(#2c96669490)"><path fill="#ffffff" d="M 0.484375 0 L 29.515625 0 L 29.515625 29.03125 L 0.484375 29.03125 Z M 0.484375 0 " fill-opacity="1" fill-rule="nonzero"/><path fill="#ff9201" d="M 0.484375 0 L 29.515625 0 L 29.515625 29.03125 L 0.484375 29.03125 Z M 0.484375 0 " fill-opacity="1" fill-rule="nonzero"/></g><g fill="#ffffff" fill-opacity="1"><g transform="translate(5.666582, 26.85484)"><g><path d="M 6.109375 -22.65625 L 6.109375 -14.1875 L 15.34375 -14.1875 L 15.34375 -11.453125 L 6.109375 -11.453125 L 6.109375 -2.734375 L 16.4375 -2.734375 L 16.4375 0 L 2.796875 0 L 2.796875 -25.390625 L 16.4375 -25.390625 L 16.4375 -22.65625 Z M 6.109375 -22.65625 "/></g></g></g></svg>