<svg xmlns="http://www.w3.org/2000/svg" xmlns:xlink="http://www.w3.org/1999/xlink" width="40" zoomAndPan="magnify" viewBox="0 0 30 30.000001" height="40" preserveAspectRatio="xMidYMid meet" version="1.0"><defs><g/><clipPath id="cb611e11f3"><path d="M 0.484375 0 L 29.515625 0 L 29.515625 29.03125 L 0.484375 29.03125 Z M 0.484375 0 " clip-rule="nonzero"/></clipPath></defs><g clip-path="url(#cb611e11f3)"><path fill="#ffffff" d="M 0.484375 0 L 29.515625 0 L 29.515625 29.03125 L 0.484375 29.03125 Z M 0.484375 0 " fill-opacity="1" fill-rule="nonzero"/><path fill="#ff9201" d="M 0.484375 0 L 29.515625 0 L 29.515625 29.03125 L 0.484375 29.03125 Z M 0.484375 0 " fill-opacity="1" fill-rule="nonzero"/></g><g fill="#ffffff" fill-opacity="1"><g transform="translate(3.704637, 26.85484)"><g><path d="M 13.171875 -12.65625 L 20.953125 0 L 17.203125 0 L 11.125 -9.890625 L 5.34375 0 L 1.671875 0 L 9.421875 -12.65625 L 1.640625 -25.359375 L 5.34375 -25.359375 L 11.453125 -15.421875 L 17.28125 -25.359375 L 20.984375 -25.359375 Z M 13.171875 -12.65625 "/></g></g></g></svg>