<svg xmlns="http://www.w3.org/2000/svg" xmlns:xlink="http://www.w3.org/1999/xlink" width="40" zoomAndPan="magnify" viewBox="0 0 30 30.000001" height="40" preserveAspectRatio="xMidYMid meet" version="1.0"><defs><g/><clipPath id="4a95f1ffe5"><path d="M 0.484375 0 L 29.515625 0 L 29.515625 29.03125 L 0.484375 29.03125 Z M 0.484375 0 " clip-rule="nonzero"/></clipPath></defs><g clip-path="url(#4a95f1ffe5)"><path fill="#ffffff" d="M 0.484375 0 L 29.515625 0 L 29.515625 29.03125 L 0.484375 29.03125 Z M 0.484375 0 " fill-opacity="1" fill-rule="nonzero"/><path fill="#ff9201" d="M 0.484375 0 L 29.515625 0 L 29.515625 29.03125 L 0.484375 29.03125 Z M 0.484375 0 " fill-opacity="1" fill-rule="nonzero"/></g><g fill="#ffffff" fill-opacity="1"><g transform="translate(0.705015, 26.85484)"><g><path d="M 14.296875 0.25 C 11.941406 0.25 9.796875 -0.300781 7.859375 -1.40625 C 5.921875 -2.507812 4.382812 -4.046875 3.25 -6.015625 C 2.125 -7.992188 1.5625 -10.21875 1.5625 -12.6875 C 1.5625 -15.164062 2.125 -17.390625 3.25 -19.359375 C 4.382812 -21.335938 5.921875 -22.878906 7.859375 -23.984375 C 9.796875 -25.085938 11.941406 -25.640625 14.296875 -25.640625 C 16.671875 -25.640625 18.828125 -25.085938 20.765625 -23.984375 C 22.710938 -22.878906 24.242188 -21.34375 25.359375 -19.375 C 26.472656 -17.414062 27.03125 -15.1875 27.03125 -12.6875 C 27.03125 -10.195312 26.472656 -7.96875 25.359375 -6 C 24.242188 -4.039062 22.710938 -2.507812 20.765625 -1.40625 C 18.828125 -0.300781 16.671875 0.25 14.296875 0.25 Z M 14.296875 -2.625 C 16.066406 -2.625 17.660156 -3.035156 19.078125 -3.859375 C 20.492188 -4.679688 21.609375 -5.851562 22.421875 -7.375 C 23.234375 -8.90625 23.640625 -10.675781 23.640625 -12.6875 C 23.640625 -14.726562 23.234375 -16.503906 22.421875 -18.015625 C 21.609375 -19.535156 20.5 -20.707031 19.09375 -21.53125 C 17.6875 -22.351562 16.085938 -22.765625 14.296875 -22.765625 C 12.503906 -22.765625 10.90625 -22.351562 9.5 -21.53125 C 8.09375 -20.707031 6.984375 -19.535156 6.171875 -18.015625 C 5.359375 -16.503906 4.953125 -14.726562 4.953125 -12.6875 C 4.953125 -10.675781 5.359375 -8.90625 6.171875 -7.375 C 6.984375 -5.851562 8.097656 -4.679688 9.515625 -3.859375 C 10.929688 -3.035156 12.523438 -2.625 14.296875 -2.625 Z M 14.296875 -2.625 "/></g></g></g></svg>