<svg xmlns="http://www.w3.org/2000/svg" viewBox="0 0 1600.46 351.41"><defs><style>.cls-1{fill:#0D3360;}.cls-2{fill:#f47202;}.cls-3{fill:#fff;}</style></defs><g id="Layer_2" data-name="Layer 2"><g id="Layer_1-2" data-name="Layer 1"><g id="Layer_2-2" data-name="Layer 2"><path class="cls-1" d="M461.83,261.71h-52.6l-.18-148.15a41.2,41.2,0,0,1,5.32-20.51c6.07-10.62,11-7.84,31.28.31,2.27.92,9.09-7.85,10.93-6.23l113.86,97.61V78.61H760.25a104.49,104.49,0,0,1,73.88,30.6l28,28,44.66-44.67a46.51,46.51,0,0,1,32.87-13.61h55.78l-99.26,87.69,101.24,94.86H938.88A46.47,46.47,0,0,1,906,247.82l-48.5-48.5-62.4,62.39H723.27L824.45,169l-44.36-41H619.35v107.3s1.51,28.57-34.23,26.2a17.35,17.35,0,0,1-10.31-4.32L461.35,157.22Z"/><polygon class="cls-1" points="635.66 148.51 774.94 148.51 793.95 167.52 775 186.47 635.66 186.47 635.66 148.51"/><path class="cls-1" d="M635.66,208.77s.31,26.7.13,42.44a6.87,6.87,0,0,0,6.87,7h60.11l50.78-49.39Z"/><path class="cls-2" d="M1122.38,217.31h-62.45A24.89,24.89,0,0,1,1035,192.42V147.21a24.89,24.89,0,0,1,24.89-24.89h62.45a24.9,24.9,0,0,1,24.89,24.89v45.21A24.9,24.9,0,0,1,1122.38,217.31Zm76.87-4.64V126.48a48.39,48.39,0,0,0-48.39-48.38H1031.44a48.38,48.38,0,0,0-48.38,48.38v86.19a48.38,48.38,0,0,0,48.38,48.39h119.42A48.39,48.39,0,0,0,1199.25,212.67Z"/><polygon class="cls-2" points="1441.17 147.83 1581.45 147.83 1600.46 166.84 1581.51 185.79 1441.17 185.79 1441.17 147.83"/><path class="cls-2" d="M1440.51,208.4s-1.21,27.24-1.56,42.73a6.51,6.51,0,0,0,6.52,6.66H1510l48-49.39Z"/><path class="cls-2" d="M1424.86,128.29h136.05l-49.37-49.36H1376V184.05L1266.74,86.22A32,32,0,0,0,1247.63,78a37.47,37.47,0,0,0-3.79-.08L1193,77.36c17.14,8.7,21.49,31.91,21.49,31.91l.06,0V227.84c0,11.29-13.16,33.22-20.71,33.22,15,0,45.11.48,64.5.62a8.75,8.75,0,0,0,8.79-8.77l-.28-98.37,111.36,100.07a25.21,25.21,0,0,0,16.75,6.32c31.28-.14,29.89-26.35,29.89-26.35Z"/><path class="cls-1" d="M492.28,117.76l-30.86-29a40.64,40.64,0,0,0-26.77-10.08H409.06v38.77Z"/><path class="cls-1" d="M619.27,230v31.48H588.48a2.51,2.51,0,0,1-2.4-3.22l3.53-11.89a2.54,2.54,0,0,1,1-1.34l24.75-17.1A2.51,2.51,0,0,1,619.27,230Z"/><path class="cls-2" d="M1424.81,229.41V260.9H1394a2.51,2.51,0,0,1-2.4-3.22l3.53-11.89a2.56,2.56,0,0,1,1-1.35l24.75-17.09A2.5,2.5,0,0,1,1424.81,229.41Z"/><rect class="cls-1" width="351.41" height="351.41" rx="55.78"/><path class="cls-2" d="M45.74,266.46h56.35L135.9,158.32l57.55,107.9h59.31L163.57,94.36a17.48,17.48,0,0,0-15.5-9.42h-46Z"/><path class="cls-3" d="M233.64,135H207.83L222,93.26a11.9,11.9,0,0,1,11.26-8.08h72.41l-52.91,181H193.48s0,0,0,0Z"/></g></g></g></svg>